<svg width="403" height="290" viewBox="0 0 403 290" fill="none" xmlns="http://www.w3.org/2000/svg">
<rect width="403" height="290" rx="15" fill="#30304C"/>
<g clip-path="url(#clip0_267_298)">
<path d="M17.7412 275.999H15.6143V265.725L12.4766 266.797V264.995L17.4688 263.158H17.7412V275.999ZM32.6914 275.999H30.4766V270.312H24.7549V275.999H22.5312V263.202H24.7549V268.528H30.4766V263.202H32.6914V275.999Z" fill="white"/>
<path d="M88.5703 263.158V275.999H86.4521V265.672L83.3145 266.735V264.986L88.3154 263.158H88.5703ZM97.0693 275.999H94.3359L94.3535 274.25H97.0693C97.8604 274.25 98.5225 274.077 99.0557 273.731C99.5947 273.386 99.999 272.891 100.269 272.246C100.544 271.602 100.682 270.834 100.682 269.943V269.249C100.682 268.558 100.602 267.945 100.444 267.412C100.292 266.879 100.063 266.431 99.7588 266.067C99.46 265.704 99.0908 265.429 98.6514 265.241C98.2178 265.054 97.7168 264.96 97.1484 264.96H94.2832V263.202H97.1484C97.998 263.202 98.7744 263.346 99.4775 263.633C100.181 263.914 100.787 264.321 101.297 264.854C101.812 265.388 102.208 266.026 102.483 266.77C102.759 267.515 102.896 268.347 102.896 269.267V269.943C102.896 270.863 102.759 271.695 102.483 272.439C102.208 273.184 101.812 273.822 101.297 274.355C100.781 274.883 100.166 275.29 99.4512 275.577C98.7422 275.858 97.9482 275.999 97.0693 275.999ZM95.5576 263.202V275.999H93.3516V263.202H95.5576Z" fill="#DDDDDD"/>
<path d="M157.244 263.158V275.999H155.126V265.672L151.989 266.735V264.986L156.99 263.158H157.244ZM165.234 273.125L167.782 263.202H169.118L168.969 265.76L166.244 275.999H164.856L165.234 273.125ZM163.326 263.202L165.392 273.046L165.576 275.999H164.1L161.138 263.202H163.326ZM172.01 273.02L174.049 263.202H176.246L173.284 275.999H171.808L172.01 273.02ZM169.637 263.202L172.159 273.151L172.529 275.999H171.14L168.459 265.76L168.319 263.202H169.637Z" fill="#DDDDDD"/>
<path d="M231.284 263.158V275.999H229.166V265.672L226.028 266.735V264.986L231.029 263.158H231.284ZM236.961 263.202H238.93L242.63 273.072L246.322 263.202H248.291L243.404 275.999H241.839L236.961 263.202ZM236.065 263.202H237.937L238.262 271.745V275.999H236.065V263.202ZM247.315 263.202H249.196V275.999H246.99V271.745L247.315 263.202Z" fill="#DDDDDD"/>
<path d="M304.25 263.158V275.999H302.132V265.672L298.994 266.735V264.986L303.995 263.158H304.25ZM310.253 263.202L313.224 269.311L316.194 263.202H318.638L314.331 271.288V275.999H312.107V271.288L307.801 263.202H310.253Z" fill="#DDDDDD"/>
<path d="M372.458 264.908L368.635 276H366.324L371.14 263.203H372.617L372.458 264.908ZM375.658 276L371.826 264.908L371.659 263.203H373.144L377.978 276H375.658ZM375.473 271.254V273.003H368.512V271.254H375.473ZM381.467 262.5V276H379.34V262.5H381.467ZM386.055 262.5V276H383.928V262.5H386.055Z" fill="#DDDDDD"/>
<path d="M11 161.782L17.0811 159.114L24.1757 144L35.3243 131.552L42.4189 150.223L50.0203 140.443L55.0878 127.996L62.1824 136.887L67.25 169.784L74.3446 144L79.4122 150.223L87.0135 117.326L92.5878 121.772L99.6824 79.0953H104.75L111.845 96.8774L118.432 97.7665L124.007 93.321L130.595 109.325L137.689 55.9785L144.277 65.7587L149.345 87.0973L155.932 55.9785L162.52 63.9805H169.108L174.176 87.0973L180.764 94.2101L185.831 117.326L193.432 98.6556L199.007 108.436L206.608 78.2062L212.182 117.326L220.291 97.7665L224.345 94.2101L230.426 91.5428L236.507 97.7665L244.108 62.2023L250.189 31.9727L257.284 46.1984L264.378 79.9844L267.926 111.103L281.608 107.547L293.264 175.118L300.358 172.451L306.439 148.445L313.534 207.126L320.122 175.118L325.189 221.352L331.777 204.459L338.872 213.35L344.953 192.011L350.02 151.112L357.115 182.231L364.209 179.564L368.77 207.126L374.345 151.112L375.865 135.998L386 97.7665" stroke="#FF7D3B" stroke-width="2"/>
<path d="M386.5 10V236" stroke="white" stroke-dasharray="7 7"/>
<path d="M386.328 92.6579C389.918 92.6579 392.828 95.7028 392.828 99.4588C392.828 103.215 389.918 106.26 386.328 106.26C382.738 106.26 379.828 103.215 379.828 99.4588C379.828 95.7028 382.738 92.6579 386.328 92.6579Z" fill="#FF7D3B"/>
<path d="M386.367 95.797C388.3 95.797 389.867 97.4366 389.867 99.4591C389.867 101.482 388.3 103.121 386.367 103.121C384.434 103.121 382.867 101.482 382.867 99.4591C382.867 97.4366 384.434 95.797 386.367 95.797Z" fill="white"/>
<path d="M255 55.8047C255 53.0433 257.239 50.8047 260 50.8047H369C371.761 50.8047 374 53.0433 374 55.8047V99.1658C374 101.927 371.761 104.166 369 104.166H260C257.239 104.166 255 101.927 255 99.1659V55.8047Z" fill="white"/>
<path d="M269.741 95.0098H267.614V84.7354L264.477 85.8076V84.0059L269.469 82.169H269.741V95.0098ZM282.793 95.0098H274.188V93.542L278.451 88.8926C279.066 88.207 279.503 87.6358 279.761 87.1787C280.024 86.7158 280.156 86.2529 280.156 85.7901C280.156 85.1807 279.983 84.6885 279.638 84.3135C279.298 83.9385 278.838 83.751 278.258 83.751C277.566 83.751 277.03 83.9619 276.649 84.3838C276.269 84.8057 276.078 85.3828 276.078 86.1152H273.942C273.942 85.3359 274.118 84.6358 274.47 84.0147C274.827 83.3877 275.334 82.9014 275.99 82.5557C276.652 82.21 277.414 82.0371 278.275 82.0371C279.518 82.0371 280.496 82.3506 281.211 82.9776C281.932 83.5986 282.292 84.46 282.292 85.5615C282.292 86.2002 282.11 86.8711 281.747 87.5742C281.39 88.2715 280.801 89.0654 279.98 89.9561L276.852 93.3047H282.793V95.0098ZM284.99 88.6641L285.685 82.2129H292.558V84.0586H287.46L287.108 87.1172C287.7 86.7774 288.368 86.6074 289.112 86.6074C290.331 86.6074 291.277 86.9971 291.951 87.7764C292.631 88.5557 292.971 89.6045 292.971 90.9229C292.971 92.2236 292.596 93.2608 291.846 94.0342C291.096 94.8018 290.067 95.1856 288.761 95.1856C287.589 95.1856 286.616 94.8545 285.843 94.1924C285.075 93.5244 284.659 92.6455 284.595 91.5557H286.66C286.742 92.1768 286.965 92.6543 287.328 92.9883C287.691 93.3164 288.166 93.4805 288.752 93.4805C289.408 93.4805 289.918 93.2461 290.281 92.7774C290.65 92.3086 290.835 91.6699 290.835 90.8613C290.835 90.082 290.633 89.4668 290.229 89.0156C289.824 88.5586 289.268 88.3301 288.559 88.3301C288.172 88.3301 287.844 88.3828 287.574 88.4883C287.305 88.5879 287.012 88.7871 286.695 89.0859L284.99 88.6641ZM303.148 89.4815L301.698 91.0195V95.0098H299.475V82.2129H301.698V88.2158L302.929 86.6953L306.673 82.2129H309.362L304.607 87.8818L309.635 95.0098H306.998L303.148 89.4815ZM318.415 92.0654L319.927 85.5H322.01L319.417 95.0098H317.659L315.62 88.4795L313.616 95.0098H311.858L309.257 85.5H311.34L312.878 91.9951L314.829 85.5H316.438L318.415 92.0654ZM325.543 86.5371C326.24 85.7285 327.122 85.3242 328.188 85.3242C330.216 85.3242 331.244 86.4815 331.273 88.7959V95.0098H329.138V88.875C329.138 88.2188 328.994 87.7559 328.707 87.4863C328.426 87.2109 328.01 87.0733 327.459 87.0733C326.604 87.0733 325.965 87.4541 325.543 88.2158V95.0098H323.407V81.5098H325.543V86.5371Z" fill="#FF7D3B"/>
<path d="M270.583 68.8116H266.728L265.921 71.1289H264.123L267.883 61.1758H269.435L273.201 71.1289H271.396L270.583 68.8116ZM267.213 67.417H270.098L268.655 63.2881L267.213 67.417ZM278.574 70.4043C278.087 70.9785 277.394 71.2657 276.496 71.2657C275.694 71.2657 275.086 71.031 274.671 70.5616C274.261 70.0922 274.056 69.4131 274.056 68.5244V63.7325H275.717V68.5039C275.717 69.4427 276.106 69.9121 276.886 69.9121C277.692 69.9121 278.237 69.6228 278.52 69.044V63.7325H280.181V71.1289H278.615L278.574 70.4043ZM281.582 67.376C281.582 66.2276 281.851 65.3116 282.389 64.628C282.931 63.9398 283.649 63.5957 284.542 63.5957C285.385 63.5957 286.048 63.8897 286.531 64.4776L286.606 63.7325H288.104V70.9034C288.104 71.8741 287.8 72.6397 287.194 73.2002C286.593 73.7608 285.779 74.041 284.754 74.041C284.212 74.041 283.681 73.9271 283.161 73.6993C282.646 73.4759 282.254 73.182 281.985 72.8174L282.771 71.8194C283.282 72.4255 283.911 72.7285 284.658 72.7285C285.21 72.7285 285.645 72.5782 285.964 72.2774C286.283 71.9812 286.442 71.5437 286.442 70.9649V70.4659C285.964 70.9991 285.326 71.2657 284.528 71.2657C283.662 71.2657 282.954 70.9216 282.402 70.2334C281.855 69.5453 281.582 68.5928 281.582 67.376ZM283.236 67.5196C283.236 68.2624 283.387 68.848 283.688 69.2764C283.993 69.7002 284.414 69.9121 284.952 69.9121C285.622 69.9121 286.119 69.625 286.442 69.0508V65.7969C286.128 65.2364 285.636 64.9561 284.966 64.9561C284.419 64.9561 283.993 65.1726 283.688 65.6055C283.387 66.0384 283.236 66.6765 283.236 67.5196ZM299.465 63.8008C299.465 64.2884 299.34 64.7237 299.089 65.1065C298.838 65.4847 298.496 65.7832 298.063 66.002C298.583 66.2435 298.982 66.5739 299.26 66.9932C299.542 67.4125 299.684 67.8864 299.684 68.4151C299.684 69.2901 299.387 69.9851 298.795 70.5C298.202 71.0104 297.414 71.2657 296.43 71.2657C295.441 71.2657 294.648 71.0082 294.051 70.4932C293.458 69.9782 293.162 69.2855 293.162 68.4151C293.162 67.8819 293.303 67.4034 293.586 66.9795C293.868 66.5557 294.265 66.2299 294.775 66.002C294.347 65.7832 294.007 65.4847 293.757 65.1065C293.511 64.7237 293.388 64.2884 293.388 63.8008C293.388 62.9532 293.661 62.281 294.208 61.7842C294.755 61.2875 295.493 61.0391 296.423 61.0391C297.357 61.0391 298.098 61.2875 298.645 61.7842C299.191 62.281 299.465 62.9532 299.465 63.8008ZM298.022 68.333C298.022 67.8409 297.874 67.4444 297.578 67.1436C297.286 66.8382 296.899 66.6856 296.416 66.6856C295.933 66.6856 295.546 66.836 295.254 67.1368C294.967 67.4375 294.823 67.8363 294.823 68.333C294.823 68.8207 294.965 69.2103 295.247 69.502C295.534 69.7937 295.928 69.9395 296.43 69.9395C296.931 69.9395 297.321 69.7982 297.599 69.5157C297.881 69.2331 298.022 68.8389 298.022 68.333ZM297.811 63.8623C297.811 63.4294 297.685 63.0739 297.435 62.7959C297.184 62.5134 296.847 62.3721 296.423 62.3721C295.999 62.3721 295.664 62.5065 295.418 62.7754C295.172 63.0397 295.049 63.4021 295.049 63.8623C295.049 64.3181 295.172 64.6804 295.418 64.9493C295.669 65.2181 296.006 65.3526 296.43 65.3526C296.854 65.3526 297.188 65.2181 297.435 64.9493C297.685 64.6804 297.811 64.3181 297.811 63.8623ZM301.495 73.3711L300.6 72.8379C300.864 72.4232 301.044 72.0609 301.14 71.751C301.24 71.4457 301.292 71.1335 301.297 70.8145V69.5225H302.794L302.787 70.7188C302.783 71.2019 302.66 71.6849 302.418 72.168C302.181 72.6556 301.873 73.0567 301.495 73.3711ZM309.637 65.3936H310.648C311.159 65.389 311.562 65.2569 311.858 64.9971C312.159 64.7373 312.31 64.3614 312.31 63.8692C312.31 63.3952 312.184 63.0284 311.934 62.7686C311.688 62.5043 311.309 62.3721 310.799 62.3721C310.352 62.3721 309.985 62.502 309.698 62.7618C309.411 63.017 309.268 63.3519 309.268 63.7666H307.606C307.606 63.2562 307.741 62.7914 308.01 62.3721C308.283 61.9528 308.661 61.627 309.145 61.3946C309.632 61.1576 310.177 61.0391 310.778 61.0391C311.772 61.0391 312.551 61.2897 313.116 61.791C313.686 62.2878 313.971 62.9805 313.971 63.8692C313.971 64.3158 313.827 64.7373 313.54 65.1338C313.257 65.5257 312.891 65.822 312.439 66.0225C312.986 66.2093 313.401 66.5033 313.684 66.9043C313.971 67.3054 314.114 67.7839 314.114 68.3399C314.114 69.2331 313.807 69.944 313.191 70.4727C312.581 71.0013 311.776 71.2657 310.778 71.2657C309.821 71.2657 309.037 71.0104 308.427 70.5C307.816 69.9896 307.511 69.3106 307.511 68.4629H309.172C309.172 68.9004 309.318 69.2559 309.609 69.5293C309.906 69.8028 310.302 69.9395 310.799 69.9395C311.314 69.9395 311.719 69.8028 312.016 69.5293C312.312 69.2559 312.46 68.8594 312.46 68.3399C312.46 67.8158 312.305 67.4125 311.995 67.1299C311.685 66.8474 311.225 66.7061 310.614 66.7061H309.637V65.3936ZM316.78 69.3789C317.09 69.3789 317.329 69.4678 317.498 69.6455C317.667 69.8187 317.751 70.0375 317.751 70.3018C317.751 70.5616 317.667 70.778 317.498 70.9512C317.329 71.1198 317.09 71.2041 316.78 71.2041C316.484 71.2041 316.249 71.1198 316.076 70.9512C315.903 70.7826 315.816 70.5661 315.816 70.3018C315.816 70.0375 315.901 69.8187 316.069 69.6455C316.238 69.4678 316.475 69.3789 316.78 69.3789ZM316.78 63.5752C317.09 63.5752 317.329 63.6641 317.498 63.8418C317.667 64.015 317.751 64.2338 317.751 64.4981C317.751 64.7578 317.667 64.9743 317.498 65.1475C317.329 65.3161 317.09 65.4004 316.78 65.4004C316.484 65.4004 316.249 65.3161 316.076 65.1475C315.903 64.9789 315.816 64.7624 315.816 64.4981C315.816 64.2338 315.901 64.015 316.069 63.8418C316.238 63.6641 316.475 63.5752 316.78 63.5752ZM321.312 65.3936H322.324C322.835 65.389 323.238 65.2569 323.534 64.9971C323.835 64.7373 323.985 64.3614 323.985 63.8692C323.985 63.3952 323.86 63.0284 323.609 62.7686C323.363 62.5043 322.985 62.3721 322.475 62.3721C322.028 62.3721 321.661 62.502 321.374 62.7618C321.087 63.017 320.943 63.3519 320.943 63.7666H319.282C319.282 63.2562 319.417 62.7914 319.686 62.3721C319.959 61.9528 320.337 61.627 320.82 61.3946C321.308 61.1576 321.853 61.0391 322.454 61.0391C323.448 61.0391 324.227 61.2897 324.792 61.791C325.362 62.2878 325.646 62.9805 325.646 63.8692C325.646 64.3158 325.503 64.7373 325.216 65.1338C324.933 65.5257 324.566 65.822 324.115 66.0225C324.662 66.2093 325.077 66.5033 325.359 66.9043C325.646 67.3054 325.79 67.7839 325.79 68.3399C325.79 69.2331 325.482 69.944 324.867 70.4727C324.257 71.0013 323.452 71.2657 322.454 71.2657C321.497 71.2657 320.713 71.0104 320.103 70.5C319.492 69.9896 319.187 69.3106 319.187 68.4629H320.848C320.848 68.9004 320.993 69.2559 321.285 69.5293C321.581 69.8028 321.978 69.9395 322.475 69.9395C322.99 69.9395 323.395 69.8028 323.691 69.5293C323.988 69.2559 324.136 68.8594 324.136 68.3399C324.136 67.8158 323.981 67.4125 323.671 67.1299C323.361 66.8474 322.901 66.7061 322.29 66.7061H321.312V65.3936ZM333.836 66.9385C333.836 68.3695 333.567 69.4496 333.029 70.1787C332.496 70.9034 331.683 71.2657 330.589 71.2657C329.513 71.2657 328.702 70.9125 328.155 70.2061C327.613 69.4951 327.335 68.4447 327.321 67.0547V65.3321C327.321 63.9011 327.588 62.8278 328.121 62.1123C328.659 61.3968 329.477 61.0391 330.575 61.0391C331.664 61.0391 332.476 61.3877 333.009 62.085C333.547 62.7823 333.822 63.8259 333.836 65.2159V66.9385ZM332.175 65.0791C332.175 64.1449 332.047 63.4613 331.792 63.0284C331.537 62.5909 331.131 62.3721 330.575 62.3721C330.033 62.3721 329.634 62.5795 329.379 62.9942C329.124 63.4043 328.989 64.0469 328.976 64.9219V67.1778C328.976 68.1075 329.105 68.8002 329.365 69.2559C329.625 69.7116 330.033 69.9395 330.589 69.9395C331.122 69.9395 331.516 69.7299 331.771 69.3106C332.027 68.8868 332.161 68.2259 332.175 67.3282V65.0791ZM344.63 68.8116H340.774L339.968 71.1289H338.17L341.93 61.1758H343.481L347.248 71.1289H345.443L344.63 68.8116ZM341.26 67.417H344.145L342.702 63.2881L341.26 67.417ZM350.625 61.1758L353.496 68.8047L356.36 61.1758H358.596V71.1289H356.873V67.8477L357.044 63.459L354.104 71.1289H352.867L349.935 63.4659L350.105 67.8477V71.1289H348.383V61.1758H350.625Z" fill="#FF7D3B"/>
</g>
<defs>
<clipPath id="clip0_267_298">
<rect width="383" height="270" fill="white" transform="translate(10 10)"/>
</clipPath>
</defs>
</svg>
