<svg width="1528" height="520" viewBox="0 0 1528 520" fill="none" xmlns="http://www.w3.org/2000/svg">
<rect width="367" height="520" rx="20" fill="#30304C"/>
<path d="M39.536 63.792H45.176V66H36.8V49.32H39.536V63.792ZM59.4401 52.776V66H56.7041V64.44C56.2721 64.984 55.7041 65.416 55.0001 65.736C54.3121 66.04 53.5761 66.192 52.7921 66.192C51.7521 66.192 50.8161 65.976 49.9841 65.544C49.1681 65.112 48.5201 64.472 48.0401 63.624C47.5761 62.776 47.3441 61.752 47.3441 60.552V52.776H50.0561V60.144C50.0561 61.328 50.3521 62.24 50.9441 62.88C51.5361 63.504 52.3441 63.816 53.3681 63.816C54.3921 63.816 55.2001 63.504 55.7921 62.88C56.4001 62.24 56.7041 61.328 56.7041 60.144V52.776H59.4401ZM62.138 59.376C62.138 58.016 62.41 56.824 62.954 55.8C63.514 54.76 64.282 53.96 65.258 53.4C66.234 52.84 67.354 52.56 68.618 52.56C70.218 52.56 71.538 52.944 72.578 53.712C73.634 54.464 74.346 55.544 74.714 56.952H71.762C71.522 56.296 71.138 55.784 70.61 55.416C70.082 55.048 69.418 54.864 68.618 54.864C67.498 54.864 66.602 55.264 65.93 56.064C65.274 56.848 64.946 57.952 64.946 59.376C64.946 60.8 65.274 61.912 65.93 62.712C66.602 63.512 67.498 63.912 68.618 63.912C70.202 63.912 71.25 63.216 71.762 61.824H74.714C74.33 63.168 73.61 64.24 72.554 65.04C71.498 65.824 70.186 66.216 68.618 66.216C67.354 66.216 66.234 65.936 65.258 65.376C64.282 64.8 63.514 64 62.954 62.976C62.41 61.936 62.138 60.736 62.138 59.376ZM82.6726 59.4L88.7686 66H85.0726L80.1766 60.312V66H77.4406V48.24H80.1766V58.56L84.9766 52.776H88.7686L82.6726 59.4ZM102.634 52.776L94.5217 72.216H91.6897L94.3777 65.784L89.1697 52.776H92.2177L95.9377 62.856L99.8017 52.776H102.634ZM122.597 54.288C122.597 55.136 122.397 55.936 121.997 56.688C121.597 57.44 120.957 58.056 120.077 58.536C119.197 59 118.069 59.232 116.693 59.232H113.669V66H110.933V49.32H116.693C117.973 49.32 119.053 49.544 119.933 49.992C120.829 50.424 121.493 51.016 121.925 51.768C122.373 52.52 122.597 53.36 122.597 54.288ZM116.693 57C117.733 57 118.509 56.768 119.021 56.304C119.533 55.824 119.789 55.152 119.789 54.288C119.789 52.464 118.757 51.552 116.693 51.552H113.669V57H116.693ZM130.942 66.216C129.694 66.216 128.566 65.936 127.558 65.376C126.55 64.8 125.758 64 125.182 62.976C124.606 61.936 124.318 60.736 124.318 59.376C124.318 58.032 124.614 56.84 125.206 55.8C125.798 54.76 126.606 53.96 127.63 53.4C128.654 52.84 129.798 52.56 131.062 52.56C132.326 52.56 133.47 52.84 134.494 53.4C135.518 53.96 136.326 54.76 136.918 55.8C137.51 56.84 137.806 58.032 137.806 59.376C137.806 60.72 137.502 61.912 136.894 62.952C136.286 63.992 135.454 64.8 134.398 65.376C133.358 65.936 132.206 66.216 130.942 66.216ZM130.942 63.84C131.646 63.84 132.302 63.672 132.91 63.336C133.534 63 134.038 62.496 134.422 61.824C134.806 61.152 134.998 60.336 134.998 59.376C134.998 58.416 134.814 57.608 134.446 56.952C134.078 56.28 133.59 55.776 132.982 55.44C132.374 55.104 131.718 54.936 131.014 54.936C130.31 54.936 129.654 55.104 129.046 55.44C128.454 55.776 127.982 56.28 127.63 56.952C127.278 57.608 127.102 58.416 127.102 59.376C127.102 60.8 127.462 61.904 128.182 62.688C128.918 63.456 129.838 63.84 130.942 63.84ZM141.903 51.024C141.407 51.024 140.991 50.856 140.655 50.52C140.319 50.184 140.151 49.768 140.151 49.272C140.151 48.776 140.319 48.36 140.655 48.024C140.991 47.688 141.407 47.52 141.903 47.52C142.383 47.52 142.791 47.688 143.127 48.024C143.463 48.36 143.631 48.776 143.631 49.272C143.631 49.768 143.463 50.184 143.127 50.52C142.791 50.856 142.383 51.024 141.903 51.024ZM143.247 52.776V66H140.511V52.776H143.247ZM153.511 52.56C154.551 52.56 155.479 52.776 156.295 53.208C157.127 53.64 157.775 54.28 158.239 55.128C158.703 55.976 158.935 57 158.935 58.2V66H156.223V58.608C156.223 57.424 155.927 56.52 155.335 55.896C154.743 55.256 153.935 54.936 152.911 54.936C151.887 54.936 151.071 55.256 150.463 55.896C149.871 56.52 149.575 57.424 149.575 58.608V66H146.839V52.776H149.575V54.288C150.023 53.744 150.591 53.32 151.279 53.016C151.983 52.712 152.727 52.56 153.511 52.56ZM165.617 55.008V62.328C165.617 62.824 165.729 63.184 165.953 63.408C166.193 63.616 166.593 63.72 167.153 63.72H168.833V66H166.673C165.441 66 164.497 65.712 163.841 65.136C163.185 64.56 162.857 63.624 162.857 62.328V55.008H161.297V52.776H162.857V49.488H165.617V52.776H168.833V55.008H165.617Z" fill="#F1EEFF"/>
<path d="M50.792 101.008L49.904 105.16H53.072V107.56H49.4L48.44 112H45.824L46.784 107.56H42.08L41.12 112H38.504L39.464 107.56H35.744V105.16H39.968L40.856 101.008H37.16V98.608H41.36L42.296 94.24H44.912L43.976 98.608H48.68L49.616 94.24H52.232L51.296 98.608H54.488V101.008H50.792ZM48.176 101.008H43.472L42.584 105.16H47.288L48.176 101.008ZM57.3217 98.824C57.4177 97.336 57.9857 96.176 59.0257 95.344C60.0817 94.512 61.4257 94.096 63.0577 94.096C64.1777 94.096 65.1457 94.296 65.9617 94.696C66.7777 95.096 67.3937 95.64 67.8097 96.328C68.2257 97.016 68.4337 97.792 68.4337 98.656C68.4337 99.648 68.1697 100.496 67.6417 101.2C67.1137 101.904 66.4817 102.376 65.7457 102.616V102.712C66.6897 103 67.4257 103.528 67.9537 104.296C68.4817 105.048 68.7457 106.016 68.7457 107.2C68.7457 108.144 68.5297 108.984 68.0977 109.72C67.6657 110.456 67.0257 111.04 66.1777 111.472C65.3297 111.888 64.3137 112.096 63.1297 112.096C61.4017 112.096 59.9777 111.656 58.8577 110.776C57.7537 109.88 57.1617 108.6 57.0817 106.936H59.7217C59.7857 107.784 60.1137 108.48 60.7057 109.024C61.2977 109.552 62.0977 109.816 63.1057 109.816C64.0817 109.816 64.8337 109.552 65.3617 109.024C65.8897 108.48 66.1537 107.784 66.1537 106.936C66.1537 105.816 65.7937 105.024 65.0737 104.56C64.3697 104.08 63.2817 103.84 61.8097 103.84H61.1857V101.584H61.8337C63.1297 101.568 64.1137 101.352 64.7857 100.936C65.4737 100.52 65.8177 99.864 65.8177 98.968C65.8177 98.2 65.5697 97.592 65.0737 97.144C64.5777 96.68 63.8737 96.448 62.9617 96.448C62.0657 96.448 61.3697 96.68 60.8737 97.144C60.3777 97.592 60.0817 98.152 59.9857 98.824H57.3217ZM71.6197 103.024C71.6197 100.256 72.0837 98.096 73.0117 96.544C73.9557 94.976 75.5717 94.192 77.8597 94.192C80.1477 94.192 81.7557 94.976 82.6837 96.544C83.6277 98.096 84.0997 100.256 84.0997 103.024C84.0997 105.824 83.6277 108.016 82.6837 109.6C81.7557 111.168 80.1477 111.952 77.8597 111.952C75.5717 111.952 73.9557 111.168 73.0117 109.6C72.0837 108.016 71.6197 105.824 71.6197 103.024ZM81.4117 103.024C81.4117 101.728 81.3237 100.632 81.1477 99.736C80.9877 98.84 80.6517 98.112 80.1397 97.552C79.6277 96.976 78.8677 96.688 77.8597 96.688C76.8517 96.688 76.0917 96.976 75.5797 97.552C75.0677 98.112 74.7237 98.84 74.5477 99.736C74.3877 100.632 74.3077 101.728 74.3077 103.024C74.3077 104.368 74.3877 105.496 74.5477 106.408C74.7077 107.32 75.0437 108.056 75.5557 108.616C76.0837 109.176 76.8517 109.456 77.8597 109.456C78.8677 109.456 79.6277 109.176 80.1397 108.616C80.6677 108.056 81.0117 107.32 81.1717 106.408C81.3317 105.496 81.4117 104.368 81.4117 103.024ZM86.9467 98.824C87.0427 97.336 87.6107 96.176 88.6507 95.344C89.7067 94.512 91.0507 94.096 92.6827 94.096C93.8027 94.096 94.7707 94.296 95.5867 94.696C96.4027 95.096 97.0187 95.64 97.4347 96.328C97.8507 97.016 98.0587 97.792 98.0587 98.656C98.0587 99.648 97.7947 100.496 97.2667 101.2C96.7387 101.904 96.1067 102.376 95.3707 102.616V102.712C96.3147 103 97.0507 103.528 97.5787 104.296C98.1067 105.048 98.3707 106.016 98.3707 107.2C98.3707 108.144 98.1547 108.984 97.7227 109.72C97.2907 110.456 96.6507 111.04 95.8027 111.472C94.9547 111.888 93.9387 112.096 92.7547 112.096C91.0267 112.096 89.6027 111.656 88.4827 110.776C87.3787 109.88 86.7867 108.6 86.7067 106.936H89.3467C89.4107 107.784 89.7387 108.48 90.3307 109.024C90.9227 109.552 91.7227 109.816 92.7307 109.816C93.7067 109.816 94.4587 109.552 94.9867 109.024C95.5147 108.48 95.7787 107.784 95.7787 106.936C95.7787 105.816 95.4187 105.024 94.6987 104.56C93.9947 104.08 92.9067 103.84 91.4347 103.84H90.8107V101.584H91.4587C92.7547 101.568 93.7387 101.352 94.4107 100.936C95.0987 100.52 95.4427 99.864 95.4427 98.968C95.4427 98.2 95.1947 97.592 94.6987 97.144C94.2027 96.68 93.4987 96.448 92.5867 96.448C91.6907 96.448 90.9947 96.68 90.4987 97.144C90.0027 97.592 89.7067 98.152 89.6107 98.824H86.9467ZM101.245 103.024C101.245 100.256 101.709 98.096 102.637 96.544C103.581 94.976 105.197 94.192 107.485 94.192C109.773 94.192 111.381 94.976 112.309 96.544C113.253 98.096 113.725 100.256 113.725 103.024C113.725 105.824 113.253 108.016 112.309 109.6C111.381 111.168 109.773 111.952 107.485 111.952C105.197 111.952 103.581 111.168 102.637 109.6C101.709 108.016 101.245 105.824 101.245 103.024ZM111.037 103.024C111.037 101.728 110.949 100.632 110.773 99.736C110.613 98.84 110.277 98.112 109.765 97.552C109.253 96.976 108.493 96.688 107.485 96.688C106.477 96.688 105.717 96.976 105.205 97.552C104.693 98.112 104.349 98.84 104.173 99.736C104.013 100.632 103.933 101.728 103.933 103.024C103.933 104.368 104.013 105.496 104.173 106.408C104.333 107.32 104.669 108.056 105.181 108.616C105.709 109.176 106.477 109.456 107.485 109.456C108.493 109.456 109.253 109.176 109.765 108.616C110.293 108.056 110.637 107.32 110.797 106.408C110.957 105.496 111.037 104.368 111.037 103.024ZM116.284 108.352V106.288L124.348 94.72H127.66V105.976H129.892V108.352H127.66V112H124.972V108.352H116.284ZM125.092 97.504L119.428 105.976H125.092V97.504ZM131.607 103.624C131.607 101.992 131.983 100.528 132.735 99.232C133.503 97.936 134.535 96.928 135.831 96.208C137.143 95.472 138.575 95.104 140.127 95.104C141.903 95.104 143.479 95.544 144.855 96.424C146.247 97.288 147.255 98.52 147.879 100.12H144.591C144.159 99.24 143.559 98.584 142.791 98.152C142.023 97.72 141.135 97.504 140.127 97.504C139.023 97.504 138.039 97.752 137.175 98.248C136.311 98.744 135.631 99.456 135.135 100.384C134.655 101.312 134.415 102.392 134.415 103.624C134.415 104.856 134.655 105.936 135.135 106.864C135.631 107.792 136.311 108.512 137.175 109.024C138.039 109.52 139.023 109.768 140.127 109.768C141.135 109.768 142.023 109.552 142.791 109.12C143.559 108.688 144.159 108.032 144.591 107.152H147.879C147.255 108.752 146.247 109.984 144.855 110.848C143.479 111.712 141.903 112.144 140.127 112.144C138.559 112.144 137.127 111.784 135.831 111.064C134.535 110.328 133.503 109.312 132.735 108.016C131.983 106.72 131.607 105.256 131.607 103.624Z" fill="#F1EEFF"/>
<rect x="387" width="1141" height="250" rx="20" fill="#FF7D3B"/>
<path d="M428.728 57.432C429.624 57.592 430.384 58.064 431.008 58.848C431.632 59.632 431.944 60.52 431.944 61.512C431.944 62.36 431.72 63.128 431.272 63.816C430.84 64.488 430.208 65.024 429.376 65.424C428.544 65.808 427.576 66 426.472 66H419.8V49.32H426.16C427.296 49.32 428.272 49.512 429.088 49.896C429.904 50.28 430.52 50.8 430.936 51.456C431.352 52.096 431.56 52.816 431.56 53.616C431.56 54.576 431.304 55.376 430.792 56.016C430.28 56.656 429.592 57.128 428.728 57.432ZM422.536 56.328H425.92C426.816 56.328 427.512 56.128 428.008 55.728C428.52 55.312 428.776 54.72 428.776 53.952C428.776 53.2 428.52 52.616 428.008 52.2C427.512 51.768 426.816 51.552 425.92 51.552H422.536V56.328ZM426.232 63.768C427.16 63.768 427.888 63.544 428.416 63.096C428.944 62.648 429.208 62.024 429.208 61.224C429.208 60.408 428.928 59.76 428.368 59.28C427.808 58.8 427.064 58.56 426.136 58.56H422.536V63.768H426.232ZM446.893 52.776V66H444.157V64.44C443.725 64.984 443.157 65.416 442.453 65.736C441.765 66.04 441.029 66.192 440.245 66.192C439.205 66.192 438.269 65.976 437.437 65.544C436.621 65.112 435.973 64.472 435.493 63.624C435.029 62.776 434.797 61.752 434.797 60.552V52.776H437.509V60.144C437.509 61.328 437.805 62.24 438.397 62.88C438.989 63.504 439.797 63.816 440.821 63.816C441.845 63.816 442.653 63.504 443.245 62.88C443.853 62.24 444.157 61.328 444.157 60.144V52.776H446.893ZM453.239 54.696C453.639 54.024 454.167 53.504 454.823 53.136C455.495 52.752 456.287 52.56 457.199 52.56V55.392H456.503C455.431 55.392 454.615 55.664 454.055 56.208C453.511 56.752 453.239 57.696 453.239 59.04V66H450.503V52.776H453.239V54.696ZM466.386 52.56C467.426 52.56 468.354 52.776 469.17 53.208C470.002 53.64 470.65 54.28 471.114 55.128C471.578 55.976 471.81 57 471.81 58.2V66H469.098V58.608C469.098 57.424 468.802 56.52 468.21 55.896C467.618 55.256 466.81 54.936 465.786 54.936C464.762 54.936 463.946 55.256 463.338 55.896C462.746 56.52 462.45 57.424 462.45 58.608V66H459.714V52.776H462.45V54.288C462.898 53.744 463.466 53.32 464.154 53.016C464.858 52.712 465.602 52.56 466.386 52.56ZM478.492 55.008V62.328C478.492 62.824 478.604 63.184 478.828 63.408C479.068 63.616 479.468 63.72 480.028 63.72H481.708V66H479.548C478.316 66 477.372 65.712 476.716 65.136C476.06 64.56 475.732 63.624 475.732 62.328V55.008H474.172V52.776H475.732V49.488H478.492V52.776H481.708V55.008H478.492ZM498.072 66.168C496.52 66.168 495.088 65.808 493.776 65.088C492.48 64.352 491.448 63.336 490.68 62.04C489.928 60.728 489.552 59.256 489.552 57.624C489.552 55.992 489.928 54.528 490.68 53.232C491.448 51.936 492.48 50.928 493.776 50.208C495.088 49.472 496.52 49.104 498.072 49.104C499.64 49.104 501.072 49.472 502.368 50.208C503.68 50.928 504.712 51.936 505.464 53.232C506.216 54.528 506.592 55.992 506.592 57.624C506.592 59.256 506.216 60.728 505.464 62.04C504.712 63.336 503.68 64.352 502.368 65.088C501.072 65.808 499.64 66.168 498.072 66.168ZM498.072 63.792C499.176 63.792 500.16 63.544 501.024 63.048C501.888 62.536 502.56 61.816 503.04 60.888C503.536 59.944 503.784 58.856 503.784 57.624C503.784 56.392 503.536 55.312 503.04 54.384C502.56 53.456 501.888 52.744 501.024 52.248C500.16 51.752 499.176 51.504 498.072 51.504C496.968 51.504 495.984 51.752 495.12 52.248C494.256 52.744 493.576 53.456 493.08 54.384C492.6 55.312 492.36 56.392 492.36 57.624C492.36 58.856 492.6 59.944 493.08 60.888C493.576 61.816 494.256 62.536 495.12 63.048C495.984 63.544 496.968 63.792 498.072 63.792ZM512.02 54.696C512.42 54.024 512.948 53.504 513.604 53.136C514.276 52.752 515.068 52.56 515.98 52.56V55.392H515.284C514.212 55.392 513.396 55.664 512.836 56.208C512.292 56.752 512.02 57.696 512.02 59.04V66H509.284V52.776H512.02V54.696ZM517.583 59.328C517.583 58 517.855 56.824 518.399 55.8C518.959 54.776 519.711 53.984 520.655 53.424C521.615 52.848 522.671 52.56 523.823 52.56C524.863 52.56 525.767 52.768 526.535 53.184C527.319 53.584 527.943 54.088 528.407 54.696V52.776H531.167V66H528.407V64.032C527.943 64.656 527.311 65.176 526.511 65.592C525.711 66.008 524.799 66.216 523.775 66.216C522.639 66.216 521.599 65.928 520.655 65.352C519.711 64.76 518.959 63.944 518.399 62.904C517.855 61.848 517.583 60.656 517.583 59.328ZM528.407 59.376C528.407 58.464 528.215 57.672 527.831 57C527.463 56.328 526.975 55.816 526.367 55.464C525.759 55.112 525.103 54.936 524.399 54.936C523.695 54.936 523.039 55.112 522.431 55.464C521.823 55.8 521.327 56.304 520.943 56.976C520.575 57.632 520.391 58.416 520.391 59.328C520.391 60.24 520.575 61.04 520.943 61.728C521.327 62.416 521.823 62.944 522.431 63.312C523.055 63.664 523.711 63.84 524.399 63.84C525.103 63.84 525.759 63.664 526.367 63.312C526.975 62.96 527.463 62.448 527.831 61.776C528.215 61.088 528.407 60.288 528.407 59.376ZM541.433 52.56C542.473 52.56 543.401 52.776 544.217 53.208C545.049 53.64 545.697 54.28 546.161 55.128C546.625 55.976 546.857 57 546.857 58.2V66H544.145V58.608C544.145 57.424 543.849 56.52 543.257 55.896C542.665 55.256 541.857 54.936 540.833 54.936C539.809 54.936 538.993 55.256 538.385 55.896C537.793 56.52 537.497 57.424 537.497 58.608V66H534.761V52.776H537.497V54.288C537.945 53.744 538.513 53.32 539.201 53.016C539.905 52.712 540.649 52.56 541.433 52.56ZM555.675 52.56C556.699 52.56 557.603 52.768 558.387 53.184C559.187 53.584 559.811 54.088 560.259 54.696V52.776H563.019V66.216C563.019 67.432 562.763 68.512 562.251 69.456C561.739 70.416 560.995 71.168 560.019 71.712C559.059 72.256 557.907 72.528 556.563 72.528C554.771 72.528 553.283 72.104 552.099 71.256C550.915 70.424 550.243 69.288 550.083 67.848H552.795C553.003 68.536 553.443 69.088 554.115 69.504C554.803 69.936 555.619 70.152 556.563 70.152C557.667 70.152 558.555 69.816 559.227 69.144C559.915 68.472 560.259 67.496 560.259 66.216V64.008C559.795 64.632 559.163 65.16 558.363 65.592C557.579 66.008 556.683 66.216 555.675 66.216C554.523 66.216 553.467 65.928 552.507 65.352C551.563 64.76 550.811 63.944 550.251 62.904C549.707 61.848 549.435 60.656 549.435 59.328C549.435 58 549.707 56.824 550.251 55.8C550.811 54.776 551.563 53.984 552.507 53.424C553.467 52.848 554.523 52.56 555.675 52.56ZM560.259 59.376C560.259 58.464 560.067 57.672 559.683 57C559.315 56.328 558.827 55.816 558.219 55.464C557.611 55.112 556.955 54.936 556.251 54.936C555.547 54.936 554.891 55.112 554.283 55.464C553.675 55.8 553.179 56.304 552.795 56.976C552.427 57.632 552.243 58.416 552.243 59.328C552.243 60.24 552.427 61.04 552.795 61.728C553.179 62.416 553.675 62.944 554.283 63.312C554.907 63.664 555.563 63.84 556.251 63.84C556.955 63.84 557.611 63.664 558.219 63.312C558.827 62.96 559.315 62.448 559.683 61.776C560.067 61.088 560.259 60.288 560.259 59.376ZM578.733 59.064C578.733 59.56 578.701 60.008 578.637 60.408H568.533C568.613 61.464 569.005 62.312 569.709 62.952C570.413 63.592 571.277 63.912 572.301 63.912C573.773 63.912 574.813 63.296 575.421 62.064H578.372C577.973 63.28 577.245 64.28 576.189 65.064C575.149 65.832 573.853 66.216 572.301 66.216C571.037 66.216 569.901 65.936 568.893 65.376C567.901 64.8 567.117 64 566.541 62.976C565.981 61.936 565.701 60.736 565.701 59.376C565.701 58.016 565.973 56.824 566.517 55.8C567.077 54.76 567.853 53.96 568.845 53.4C569.853 52.84 571.005 52.56 572.301 52.56C573.549 52.56 574.661 52.832 575.637 53.376C576.613 53.92 577.373 54.688 577.917 55.68C578.461 56.656 578.733 57.784 578.733 59.064ZM575.877 58.2C575.861 57.192 575.501 56.384 574.797 55.776C574.093 55.168 573.221 54.864 572.181 54.864C571.237 54.864 570.429 55.168 569.757 55.776C569.085 56.368 568.685 57.176 568.557 58.2H575.877Z" fill="#F1EEFF"/>
<path d="M433.792 101.008L432.904 105.16H436.072V107.56H432.4L431.44 112H428.824L429.784 107.56H425.08L424.12 112H421.504L422.464 107.56H418.744V105.16H422.968L423.856 101.008H420.16V98.608H424.36L425.296 94.24H427.912L426.976 98.608H431.68L432.616 94.24H435.232L434.296 98.608H437.488V101.008H433.792ZM431.176 101.008H426.472L425.584 105.16H430.288L431.176 101.008ZM450.546 95.32V97.552H443.466V102.472H448.986V104.704H443.466V112H440.73V95.32H450.546ZM462.897 95.32V97.552H455.817V102.472H461.337V104.704H455.817V112H453.081V95.32H462.897ZM476.161 96.616L469.489 112H466.729L473.473 96.904H464.593V94.576H476.161V96.616ZM484.311 95.32C486.087 95.32 487.639 95.664 488.967 96.352C490.311 97.024 491.343 98 492.062 99.28C492.799 100.544 493.167 102.024 493.167 103.72C493.167 105.416 492.799 106.888 492.062 108.136C491.343 109.384 490.311 110.344 488.967 111.016C487.639 111.672 486.087 112 484.311 112H478.863V95.32H484.311ZM484.311 109.768C486.263 109.768 487.759 109.24 488.799 108.184C489.839 107.128 490.359 105.64 490.359 103.72C490.359 101.784 489.839 100.272 488.799 99.184C487.759 98.096 486.263 97.552 484.311 97.552H481.599V109.768H484.311ZM495.47 98.824C495.566 97.336 496.134 96.176 497.174 95.344C498.23 94.512 499.574 94.096 501.206 94.096C502.326 94.096 503.294 94.296 504.11 94.696C504.926 95.096 505.542 95.64 505.958 96.328C506.374 97.016 506.582 97.792 506.582 98.656C506.582 99.648 506.318 100.496 505.79 101.2C505.262 101.904 504.63 102.376 503.894 102.616V102.712C504.838 103 505.574 103.528 506.102 104.296C506.63 105.048 506.894 106.016 506.894 107.2C506.894 108.144 506.678 108.984 506.246 109.72C505.814 110.456 505.174 111.04 504.326 111.472C503.478 111.888 502.462 112.096 501.278 112.096C499.55 112.096 498.126 111.656 497.006 110.776C495.902 109.88 495.31 108.6 495.23 106.936H497.87C497.934 107.784 498.262 108.48 498.854 109.024C499.446 109.552 500.246 109.816 501.254 109.816C502.23 109.816 502.982 109.552 503.51 109.024C504.038 108.48 504.302 107.784 504.302 106.936C504.302 105.816 503.942 105.024 503.222 104.56C502.518 104.08 501.43 103.84 499.958 103.84H499.334V101.584H499.982C501.278 101.568 502.262 101.352 502.934 100.936C503.622 100.52 503.966 99.864 503.966 98.968C503.966 98.2 503.718 97.592 503.222 97.144C502.726 96.68 502.022 96.448 501.11 96.448C500.214 96.448 499.518 96.68 499.022 97.144C498.526 97.592 498.23 98.152 498.134 98.824H495.47ZM519.056 103.432C519.952 103.592 520.712 104.064 521.336 104.848C521.96 105.632 522.272 106.52 522.272 107.512C522.272 108.36 522.048 109.128 521.6 109.816C521.168 110.488 520.536 111.024 519.704 111.424C518.872 111.808 517.904 112 516.8 112H510.128V95.32H516.488C517.624 95.32 518.6 95.512 519.416 95.896C520.232 96.28 520.848 96.8 521.264 97.456C521.68 98.096 521.888 98.816 521.888 99.616C521.888 100.576 521.632 101.376 521.12 102.016C520.608 102.656 519.92 103.128 519.056 103.432ZM512.864 102.328H516.248C517.144 102.328 517.84 102.128 518.336 101.728C518.848 101.312 519.104 100.72 519.104 99.952C519.104 99.2 518.848 98.616 518.336 98.2C517.84 97.768 517.144 97.552 516.248 97.552H512.864V102.328ZM516.56 109.768C517.488 109.768 518.216 109.544 518.744 109.096C519.272 108.648 519.536 108.024 519.536 107.224C519.536 106.408 519.256 105.76 518.696 105.28C518.136 104.8 517.392 104.56 516.464 104.56H512.864V109.768H516.56Z" fill="#F1EEFF"/>
<rect x="387" y="270" width="496" height="250" rx="20" fill="#1E1E2C"/>
<path d="M428.728 325.432C429.624 325.592 430.384 326.064 431.008 326.848C431.632 327.632 431.944 328.52 431.944 329.512C431.944 330.36 431.72 331.128 431.272 331.816C430.84 332.488 430.208 333.024 429.376 333.424C428.544 333.808 427.576 334 426.472 334H419.8V317.32H426.16C427.296 317.32 428.272 317.512 429.088 317.896C429.904 318.28 430.52 318.8 430.936 319.456C431.352 320.096 431.56 320.816 431.56 321.616C431.56 322.576 431.304 323.376 430.792 324.016C430.28 324.656 429.592 325.128 428.728 325.432ZM422.536 324.328H425.92C426.816 324.328 427.512 324.128 428.008 323.728C428.52 323.312 428.776 322.72 428.776 321.952C428.776 321.2 428.52 320.616 428.008 320.2C427.512 319.768 426.816 319.552 425.92 319.552H422.536V324.328ZM426.232 331.768C427.16 331.768 427.888 331.544 428.416 331.096C428.944 330.648 429.208 330.024 429.208 329.224C429.208 328.408 428.928 327.76 428.368 327.28C427.808 326.8 427.064 326.56 426.136 326.56H422.536V331.768H426.232ZM437.653 316.24V334H434.917V316.24H437.653ZM440.333 327.328C440.333 326 440.605 324.824 441.149 323.8C441.709 322.776 442.461 321.984 443.405 321.424C444.365 320.848 445.421 320.56 446.573 320.56C447.613 320.56 448.517 320.768 449.285 321.184C450.069 321.584 450.693 322.088 451.157 322.696V320.776H453.917V334H451.157V332.032C450.693 332.656 450.061 333.176 449.261 333.592C448.461 334.008 447.549 334.216 446.525 334.216C445.389 334.216 444.349 333.928 443.405 333.352C442.461 332.76 441.709 331.944 441.149 330.904C440.605 329.848 440.333 328.656 440.333 327.328ZM451.157 327.376C451.157 326.464 450.965 325.672 450.581 325C450.213 324.328 449.725 323.816 449.117 323.464C448.509 323.112 447.853 322.936 447.149 322.936C446.445 322.936 445.789 323.112 445.181 323.464C444.573 323.8 444.077 324.304 443.693 324.976C443.325 325.632 443.141 326.416 443.141 327.328C443.141 328.24 443.325 329.04 443.693 329.728C444.077 330.416 444.573 330.944 445.181 331.312C445.805 331.664 446.461 331.84 447.149 331.84C447.853 331.84 448.509 331.664 449.117 331.312C449.725 330.96 450.213 330.448 450.581 329.776C450.965 329.088 451.157 328.288 451.157 327.376ZM456.599 327.376C456.599 326.016 456.871 324.824 457.415 323.8C457.975 322.76 458.743 321.96 459.719 321.4C460.695 320.84 461.815 320.56 463.079 320.56C464.679 320.56 465.999 320.944 467.039 321.712C468.095 322.464 468.807 323.544 469.175 324.952H466.223C465.983 324.296 465.599 323.784 465.071 323.416C464.543 323.048 463.879 322.864 463.079 322.864C461.959 322.864 461.063 323.264 460.391 324.064C459.735 324.848 459.407 325.952 459.407 327.376C459.407 328.8 459.735 329.912 460.391 330.712C461.063 331.512 461.959 331.912 463.079 331.912C464.663 331.912 465.711 331.216 466.223 329.824H469.175C468.791 331.168 468.071 332.24 467.015 333.04C465.959 333.824 464.647 334.216 463.079 334.216C461.815 334.216 460.695 333.936 459.719 333.376C458.743 332.8 457.975 332 457.415 330.976C456.871 329.936 456.599 328.736 456.599 327.376ZM477.134 327.4L483.23 334H479.534L474.638 328.312V334H471.902V316.24H474.638V326.56L479.438 320.776H483.23L477.134 327.4ZM500.089 334L496.249 327.328H494.161V334H491.425V317.32H497.185C498.465 317.32 499.545 317.544 500.425 317.992C501.321 318.44 501.985 319.04 502.417 319.792C502.865 320.544 503.089 321.384 503.089 322.312C503.089 323.4 502.769 324.392 502.129 325.288C501.505 326.168 500.537 326.768 499.225 327.088L503.353 334H500.089ZM494.161 325.144H497.185C498.209 325.144 498.977 324.888 499.489 324.376C500.017 323.864 500.281 323.176 500.281 322.312C500.281 321.448 500.025 320.776 499.513 320.296C499.001 319.8 498.225 319.552 497.185 319.552H494.161V325.144ZM518.565 320.776V334H515.829V332.44C515.397 332.984 514.829 333.416 514.125 333.736C513.437 334.04 512.701 334.192 511.917 334.192C510.877 334.192 509.941 333.976 509.109 333.544C508.293 333.112 507.645 332.472 507.165 331.624C506.701 330.776 506.469 329.752 506.469 328.552V320.776H509.181V328.144C509.181 329.328 509.477 330.24 510.069 330.88C510.661 331.504 511.469 331.816 512.493 331.816C513.517 331.816 514.325 331.504 514.917 330.88C515.525 330.24 515.829 329.328 515.829 328.144V320.776H518.565ZM526.975 334.216C525.935 334.216 524.999 334.032 524.167 333.664C523.351 333.28 522.703 332.768 522.223 332.128C521.743 331.472 521.487 330.744 521.455 329.944H524.287C524.335 330.504 524.599 330.976 525.079 331.36C525.575 331.728 526.191 331.912 526.927 331.912C527.695 331.912 528.287 331.768 528.703 331.48C529.135 331.176 529.351 330.792 529.351 330.328C529.351 329.832 529.111 329.464 528.631 329.224C528.167 328.984 527.423 328.72 526.399 328.432C525.407 328.16 524.599 327.896 523.975 327.64C523.351 327.384 522.807 326.992 522.343 326.464C521.895 325.936 521.671 325.24 521.671 324.376C521.671 323.672 521.879 323.032 522.295 322.456C522.711 321.864 523.303 321.4 524.071 321.064C524.855 320.728 525.751 320.56 526.759 320.56C528.263 320.56 529.471 320.944 530.383 321.712C531.311 322.464 531.807 323.496 531.871 324.808H529.135C529.087 324.216 528.847 323.744 528.415 323.392C527.983 323.04 527.399 322.864 526.663 322.864C525.943 322.864 525.391 323 525.007 323.272C524.623 323.544 524.431 323.904 524.431 324.352C524.431 324.704 524.559 325 524.815 325.24C525.071 325.48 525.383 325.672 525.751 325.816C526.119 325.944 526.663 326.112 527.383 326.32C528.343 326.576 529.127 326.84 529.735 327.112C530.359 327.368 530.895 327.752 531.343 328.264C531.791 328.776 532.023 329.456 532.039 330.304C532.039 331.056 531.831 331.728 531.415 332.32C530.999 332.912 530.407 333.376 529.639 333.712C528.887 334.048 527.999 334.216 526.975 334.216ZM539.795 334.216C538.755 334.216 537.819 334.032 536.987 333.664C536.171 333.28 535.523 332.768 535.043 332.128C534.563 331.472 534.307 330.744 534.275 329.944H537.107C537.155 330.504 537.419 330.976 537.899 331.36C538.395 331.728 539.011 331.912 539.747 331.912C540.515 331.912 541.107 331.768 541.523 331.48C541.955 331.176 542.171 330.792 542.171 330.328C542.171 329.832 541.931 329.464 541.451 329.224C540.987 328.984 540.243 328.72 539.219 328.432C538.227 328.16 537.419 327.896 536.795 327.64C536.171 327.384 535.627 326.992 535.163 326.464C534.715 325.936 534.491 325.24 534.491 324.376C534.491 323.672 534.699 323.032 535.115 322.456C535.531 321.864 536.123 321.4 536.891 321.064C537.675 320.728 538.571 320.56 539.579 320.56C541.083 320.56 542.291 320.944 543.203 321.712C544.131 322.464 544.627 323.496 544.691 324.808H541.955C541.907 324.216 541.667 323.744 541.235 323.392C540.803 323.04 540.219 322.864 539.483 322.864C538.763 322.864 538.211 323 537.827 323.272C537.443 323.544 537.251 323.904 537.251 324.352C537.251 324.704 537.379 325 537.635 325.24C537.891 325.48 538.203 325.672 538.571 325.816C538.939 325.944 539.483 326.112 540.203 326.32C541.163 326.576 541.947 326.84 542.555 327.112C543.179 327.368 543.715 327.752 544.163 328.264C544.611 328.776 544.843 329.456 544.859 330.304C544.859 331.056 544.651 331.728 544.235 332.32C543.819 332.912 543.227 333.376 542.459 333.712C541.707 334.048 540.819 334.216 539.795 334.216ZM549.208 319.024C548.712 319.024 548.296 318.856 547.96 318.52C547.624 318.184 547.456 317.768 547.456 317.272C547.456 316.776 547.624 316.36 547.96 316.024C548.296 315.688 548.712 315.52 549.208 315.52C549.688 315.52 550.096 315.688 550.432 316.024C550.768 316.36 550.936 316.776 550.936 317.272C550.936 317.768 550.768 318.184 550.432 318.52C550.096 318.856 549.688 319.024 549.208 319.024ZM550.552 320.776V334H547.816V320.776H550.552ZM553.232 327.328C553.232 326 553.504 324.824 554.048 323.8C554.608 322.776 555.36 321.984 556.304 321.424C557.264 320.848 558.32 320.56 559.472 320.56C560.512 320.56 561.416 320.768 562.184 321.184C562.968 321.584 563.592 322.088 564.056 322.696V320.776H566.816V334H564.056V332.032C563.592 332.656 562.96 333.176 562.16 333.592C561.36 334.008 560.448 334.216 559.424 334.216C558.288 334.216 557.248 333.928 556.304 333.352C555.36 332.76 554.608 331.944 554.048 330.904C553.504 329.848 553.232 328.656 553.232 327.328ZM564.056 327.376C564.056 326.464 563.864 325.672 563.48 325C563.112 324.328 562.624 323.816 562.016 323.464C561.408 323.112 560.752 322.936 560.048 322.936C559.344 322.936 558.688 323.112 558.08 323.464C557.472 323.8 556.976 324.304 556.592 324.976C556.224 325.632 556.04 326.416 556.04 327.328C556.04 328.24 556.224 329.04 556.592 329.728C556.976 330.416 557.472 330.944 558.08 331.312C558.704 331.664 559.36 331.84 560.048 331.84C560.752 331.84 561.408 331.664 562.016 331.312C562.624 330.96 563.112 330.448 563.48 329.776C563.864 329.088 564.056 328.288 564.056 327.376ZM577.081 320.56C578.121 320.56 579.049 320.776 579.865 321.208C580.697 321.64 581.345 322.28 581.809 323.128C582.273 323.976 582.505 325 582.505 326.2V334H579.793V326.608C579.793 325.424 579.497 324.52 578.905 323.896C578.313 323.256 577.505 322.936 576.481 322.936C575.457 322.936 574.641 323.256 574.033 323.896C573.441 324.52 573.145 325.424 573.145 326.608V334H570.409V320.776H573.145V322.288C573.593 321.744 574.161 321.32 574.849 321.016C575.553 320.712 576.297 320.56 577.081 320.56Z" fill="#F1EEFF"/>
<path d="M433.792 369.008L432.904 373.16H436.072V375.56H432.4L431.44 380H428.824L429.784 375.56H425.08L424.12 380H421.504L422.464 375.56H418.744V373.16H422.968L423.856 369.008H420.16V366.608H424.36L425.296 362.24H427.912L426.976 366.608H431.68L432.616 362.24H435.232L434.296 366.608H437.488V369.008H433.792ZM431.176 369.008H426.472L425.584 373.16H430.288L431.176 369.008ZM440.01 365V362.504H445.002V380H442.242V365H440.01ZM451.856 365.528V370.424H457.616V372.656H451.856V377.768H458.336V380H449.12V363.296H458.336V365.528H451.856ZM460.986 365V362.504H465.978V380H463.218V365H460.986ZM472.833 365.528V370.424H478.593V372.656H472.833V377.768H479.313V380H470.097V363.296H479.313V365.528H472.833ZM483.835 376.28C485.371 374.952 486.579 373.864 487.459 373.016C488.355 372.152 489.099 371.256 489.691 370.328C490.283 369.4 490.579 368.472 490.579 367.544C490.579 366.584 490.347 365.832 489.883 365.288C489.435 364.744 488.723 364.472 487.747 364.472C486.803 364.472 486.067 364.776 485.539 365.384C485.027 365.976 484.755 366.776 484.723 367.784H482.083C482.131 365.96 482.675 364.568 483.715 363.608C484.771 362.632 486.107 362.144 487.723 362.144C489.467 362.144 490.827 362.624 491.803 363.584C492.795 364.544 493.291 365.824 493.291 367.424C493.291 368.576 492.995 369.688 492.403 370.76C491.827 371.816 491.131 372.768 490.315 373.616C489.515 374.448 488.491 375.416 487.243 376.52L486.163 377.48H493.771V379.76H482.107V377.768L483.835 376.28ZM495.622 371.624C495.622 369.992 495.998 368.528 496.75 367.232C497.518 365.936 498.55 364.928 499.846 364.208C501.158 363.472 502.59 363.104 504.142 363.104C505.918 363.104 507.494 363.544 508.87 364.424C510.262 365.288 511.27 366.52 511.894 368.12H508.606C508.174 367.24 507.574 366.584 506.806 366.152C506.038 365.72 505.15 365.504 504.142 365.504C503.038 365.504 502.054 365.752 501.19 366.248C500.326 366.744 499.646 367.456 499.15 368.384C498.67 369.312 498.43 370.392 498.43 371.624C498.43 372.856 498.67 373.936 499.15 374.864C499.646 375.792 500.326 376.512 501.19 377.024C502.054 377.52 503.038 377.768 504.142 377.768C505.15 377.768 506.038 377.552 506.806 377.12C507.574 376.688 508.174 376.032 508.606 375.152H511.894C511.27 376.752 510.262 377.984 508.87 378.848C507.494 379.712 505.918 380.144 504.142 380.144C502.574 380.144 501.142 379.784 499.846 379.064C498.55 378.328 497.518 377.312 496.75 376.016C495.998 374.72 495.622 373.256 495.622 371.624Z" fill="#F1EEFF"/>
<rect x="903" y="270" width="625" height="250" rx="20" fill="#DDDDDD"/>
<path d="M947.872 322.12C947.44 321.288 946.84 320.664 946.072 320.248C945.304 319.816 944.416 319.6 943.408 319.6C942.304 319.6 941.32 319.848 940.456 320.344C939.592 320.84 938.912 321.544 938.416 322.456C937.936 323.368 937.696 324.424 937.696 325.624C937.696 326.824 937.936 327.888 938.416 328.816C938.912 329.728 939.592 330.432 940.456 330.928C941.32 331.424 942.304 331.672 943.408 331.672C944.896 331.672 946.104 331.256 947.032 330.424C947.96 329.592 948.528 328.464 948.736 327.04H942.472V324.856H951.664V326.992C951.488 328.288 951.024 329.48 950.272 330.568C949.536 331.656 948.568 332.528 947.368 333.184C946.184 333.824 944.864 334.144 943.408 334.144C941.84 334.144 940.408 333.784 939.112 333.064C937.816 332.328 936.784 331.312 936.016 330.016C935.264 328.72 934.888 327.256 934.888 325.624C934.888 323.992 935.264 322.528 936.016 321.232C936.784 319.936 937.816 318.928 939.112 318.208C940.424 317.472 941.856 317.104 943.408 317.104C945.184 317.104 946.76 317.544 948.136 318.424C949.528 319.288 950.536 320.52 951.16 322.12H947.872ZM953.451 327.328C953.451 326 953.723 324.824 954.267 323.8C954.827 322.776 955.579 321.984 956.523 321.424C957.483 320.848 958.539 320.56 959.691 320.56C960.731 320.56 961.635 320.768 962.403 321.184C963.187 321.584 963.811 322.088 964.275 322.696V320.776H967.035V334H964.275V332.032C963.811 332.656 963.179 333.176 962.379 333.592C961.579 334.008 960.667 334.216 959.643 334.216C958.507 334.216 957.467 333.928 956.523 333.352C955.579 332.76 954.827 331.944 954.267 330.904C953.723 329.848 953.451 328.656 953.451 327.328ZM964.275 327.376C964.275 326.464 964.083 325.672 963.699 325C963.331 324.328 962.843 323.816 962.235 323.464C961.627 323.112 960.971 322.936 960.267 322.936C959.563 322.936 958.907 323.112 958.299 323.464C957.691 323.8 957.195 324.304 956.811 324.976C956.443 325.632 956.259 326.416 956.259 327.328C956.259 328.24 956.443 329.04 956.811 329.728C957.195 330.416 957.691 330.944 958.299 331.312C958.923 331.664 959.579 331.84 960.267 331.84C960.971 331.84 961.627 331.664 962.235 331.312C962.843 330.96 963.331 330.448 963.699 329.776C964.083 329.088 964.275 328.288 964.275 327.376ZM972.02 319.024C971.524 319.024 971.108 318.856 970.772 318.52C970.436 318.184 970.268 317.768 970.268 317.272C970.268 316.776 970.436 316.36 970.772 316.024C971.108 315.688 971.524 315.52 972.02 315.52C972.5 315.52 972.908 315.688 973.244 316.024C973.58 316.36 973.748 316.776 973.748 317.272C973.748 317.768 973.58 318.184 973.244 318.52C972.908 318.856 972.5 319.024 972.02 319.024ZM973.364 320.776V334H970.628V320.776H973.364ZM983.628 320.56C984.668 320.56 985.596 320.776 986.412 321.208C987.244 321.64 987.892 322.28 988.356 323.128C988.82 323.976 989.052 325 989.052 326.2V334H986.34V326.608C986.34 325.424 986.044 324.52 985.452 323.896C984.86 323.256 984.052 322.936 983.028 322.936C982.004 322.936 981.188 323.256 980.58 323.896C979.988 324.52 979.692 325.424 979.692 326.608V334H976.956V320.776H979.692V322.288C980.14 321.744 980.708 321.32 981.396 321.016C982.1 320.712 982.844 320.56 983.628 320.56ZM997.342 334.216C996.302 334.216 995.366 334.032 994.534 333.664C993.718 333.28 993.07 332.768 992.59 332.128C992.11 331.472 991.854 330.744 991.822 329.944H994.654C994.702 330.504 994.966 330.976 995.446 331.36C995.942 331.728 996.558 331.912 997.294 331.912C998.062 331.912 998.654 331.768 999.07 331.48C999.502 331.176 999.718 330.792 999.718 330.328C999.718 329.832 999.478 329.464 998.998 329.224C998.534 328.984 997.79 328.72 996.766 328.432C995.774 328.16 994.966 327.896 994.342 327.64C993.718 327.384 993.174 326.992 992.71 326.464C992.262 325.936 992.038 325.24 992.038 324.376C992.038 323.672 992.246 323.032 992.662 322.456C993.078 321.864 993.67 321.4 994.438 321.064C995.222 320.728 996.118 320.56 997.126 320.56C998.63 320.56 999.838 320.944 1000.75 321.712C1001.68 322.464 1002.17 323.496 1002.24 324.808H999.502C999.454 324.216 999.214 323.744 998.782 323.392C998.35 323.04 997.766 322.864 997.03 322.864C996.31 322.864 995.758 323 995.374 323.272C994.99 323.544 994.798 323.904 994.798 324.352C994.798 324.704 994.926 325 995.182 325.24C995.438 325.48 995.75 325.672 996.118 325.816C996.486 325.944 997.03 326.112 997.75 326.32C998.71 326.576 999.494 326.84 1000.1 327.112C1000.73 327.368 1001.26 327.752 1001.71 328.264C1002.16 328.776 1002.39 329.456 1002.41 330.304C1002.41 331.056 1002.2 331.728 1001.78 332.32C1001.37 332.912 1000.77 333.376 1000.01 333.712C999.254 334.048 998.366 334.216 997.342 334.216ZM1008.1 322.744C1008.56 322.104 1009.19 321.584 1009.99 321.184C1010.81 320.768 1011.71 320.56 1012.71 320.56C1013.87 320.56 1014.93 320.84 1015.87 321.4C1016.82 321.96 1017.56 322.76 1018.11 323.8C1018.65 324.824 1018.92 326 1018.92 327.328C1018.92 328.656 1018.65 329.848 1018.11 330.904C1017.56 331.944 1016.81 332.76 1015.85 333.352C1014.91 333.928 1013.86 334.216 1012.71 334.216C1011.68 334.216 1010.77 334.016 1009.97 333.616C1009.19 333.216 1008.56 332.704 1008.1 332.08V334H1005.36V316.24H1008.1V322.744ZM1016.14 327.328C1016.14 326.416 1015.95 325.632 1015.56 324.976C1015.19 324.304 1014.7 323.8 1014.07 323.464C1013.47 323.112 1012.81 322.936 1012.11 322.936C1011.42 322.936 1010.76 323.112 1010.14 323.464C1009.53 323.816 1009.03 324.328 1008.65 325C1008.28 325.672 1008.1 326.464 1008.1 327.376C1008.1 328.288 1008.28 329.088 1008.65 329.776C1009.03 330.448 1009.53 330.96 1010.14 331.312C1010.76 331.664 1011.42 331.84 1012.11 331.84C1012.81 331.84 1013.47 331.664 1014.07 331.312C1014.7 330.944 1015.19 330.416 1015.56 329.728C1015.95 329.04 1016.14 328.24 1016.14 327.328ZM1027.36 334.216C1026.12 334.216 1024.99 333.936 1023.98 333.376C1022.97 332.8 1022.18 332 1021.6 330.976C1021.03 329.936 1020.74 328.736 1020.74 327.376C1020.74 326.032 1021.04 324.84 1021.63 323.8C1022.22 322.76 1023.03 321.96 1024.05 321.4C1025.08 320.84 1026.22 320.56 1027.48 320.56C1028.75 320.56 1029.89 320.84 1030.92 321.4C1031.94 321.96 1032.75 322.76 1033.34 323.8C1033.93 324.84 1034.23 326.032 1034.23 327.376C1034.23 328.72 1033.92 329.912 1033.32 330.952C1032.71 331.992 1031.88 332.8 1030.82 333.376C1029.78 333.936 1028.63 334.216 1027.36 334.216ZM1027.36 331.84C1028.07 331.84 1028.72 331.672 1029.33 331.336C1029.96 331 1030.46 330.496 1030.84 329.824C1031.23 329.152 1031.42 328.336 1031.42 327.376C1031.42 326.416 1031.24 325.608 1030.87 324.952C1030.5 324.28 1030.01 323.776 1029.4 323.44C1028.8 323.104 1028.14 322.936 1027.44 322.936C1026.73 322.936 1026.08 323.104 1025.47 323.44C1024.88 323.776 1024.4 324.28 1024.05 324.952C1023.7 325.608 1023.52 326.416 1023.52 327.376C1023.52 328.8 1023.88 329.904 1024.6 330.688C1025.34 331.456 1026.26 331.84 1027.36 331.84ZM1039.67 322.696C1040.07 322.024 1040.6 321.504 1041.25 321.136C1041.92 320.752 1042.72 320.56 1043.63 320.56V323.392H1042.93C1041.86 323.392 1041.04 323.664 1040.48 324.208C1039.94 324.752 1039.67 325.696 1039.67 327.04V334H1036.93V320.776H1039.67V322.696ZM1051.88 334.216C1050.63 334.216 1049.5 333.936 1048.5 333.376C1047.49 332.8 1046.7 332 1046.12 330.976C1045.54 329.936 1045.26 328.736 1045.26 327.376C1045.26 326.032 1045.55 324.84 1046.14 323.8C1046.74 322.76 1047.54 321.96 1048.57 321.4C1049.59 320.84 1050.74 320.56 1052 320.56C1053.26 320.56 1054.41 320.84 1055.43 321.4C1056.46 321.96 1057.26 322.76 1057.86 323.8C1058.45 324.84 1058.74 326.032 1058.74 327.376C1058.74 328.72 1058.44 329.912 1057.83 330.952C1057.22 331.992 1056.39 332.8 1055.34 333.376C1054.3 333.936 1053.14 334.216 1051.88 334.216ZM1051.88 331.84C1052.58 331.84 1053.24 331.672 1053.85 331.336C1054.47 331 1054.98 330.496 1055.36 329.824C1055.74 329.152 1055.94 328.336 1055.94 327.376C1055.94 326.416 1055.75 325.608 1055.38 324.952C1055.02 324.28 1054.53 323.776 1053.92 323.44C1053.31 323.104 1052.66 322.936 1051.95 322.936C1051.25 322.936 1050.59 323.104 1049.98 323.44C1049.39 323.776 1048.92 324.28 1048.57 324.952C1048.22 325.608 1048.04 326.416 1048.04 327.376C1048.04 328.8 1048.4 329.904 1049.12 330.688C1049.86 331.456 1050.78 331.84 1051.88 331.84Z" fill="#000927"/>
<path d="M949.792 369.008L948.904 373.16H952.072V375.56H948.4L947.44 380H944.824L945.784 375.56H941.08L940.12 380H937.504L938.464 375.56H934.744V373.16H938.968L939.856 369.008H936.16V366.608H940.36L941.296 362.24H943.912L942.976 366.608H947.68L948.616 362.24H951.232L950.296 366.608H953.488V369.008H949.792ZM947.176 369.008H942.472L941.584 373.16H946.288L947.176 369.008ZM956.01 365V362.504H961.002V380H958.242V365H956.01ZM967.856 365.528V370.424H973.616V372.656H967.856V377.768H974.336V380H965.12V363.296H974.336V365.528H967.856ZM976.986 365V362.504H981.978V380H979.218V365H976.986ZM988.833 365.528V370.424H994.593V372.656H988.833V377.768H995.313V380H986.097V363.296H995.313V365.528H988.833ZM999.835 376.28C1001.37 374.952 1002.58 373.864 1003.46 373.016C1004.35 372.152 1005.1 371.256 1005.69 370.328C1006.28 369.4 1006.58 368.472 1006.58 367.544C1006.58 366.584 1006.35 365.832 1005.88 365.288C1005.43 364.744 1004.72 364.472 1003.75 364.472C1002.8 364.472 1002.07 364.776 1001.54 365.384C1001.03 365.976 1000.75 366.776 1000.72 367.784H998.083C998.131 365.96 998.675 364.568 999.715 363.608C1000.77 362.632 1002.11 362.144 1003.72 362.144C1005.47 362.144 1006.83 362.624 1007.8 363.584C1008.79 364.544 1009.29 365.824 1009.29 367.424C1009.29 368.576 1008.99 369.688 1008.4 370.76C1007.83 371.816 1007.13 372.768 1006.31 373.616C1005.51 374.448 1004.49 375.416 1003.24 376.52L1002.16 377.48H1009.77V379.76H998.107V377.768L999.835 376.28ZM1011.62 371.624C1011.62 369.992 1012 368.528 1012.75 367.232C1013.52 365.936 1014.55 364.928 1015.85 364.208C1017.16 363.472 1018.59 363.104 1020.14 363.104C1021.92 363.104 1023.49 363.544 1024.87 364.424C1026.26 365.288 1027.27 366.52 1027.89 368.12H1024.61C1024.17 367.24 1023.57 366.584 1022.81 366.152C1022.04 365.72 1021.15 365.504 1020.14 365.504C1019.04 365.504 1018.05 365.752 1017.19 366.248C1016.33 366.744 1015.65 367.456 1015.15 368.384C1014.67 369.312 1014.43 370.392 1014.43 371.624C1014.43 372.856 1014.67 373.936 1015.15 374.864C1015.65 375.792 1016.33 376.512 1017.19 377.024C1018.05 377.52 1019.04 377.768 1020.14 377.768C1021.15 377.768 1022.04 377.552 1022.81 377.12C1023.57 376.688 1024.17 376.032 1024.61 375.152H1027.89C1027.27 376.752 1026.26 377.984 1024.87 378.848C1023.49 379.712 1021.92 380.144 1020.14 380.144C1018.57 380.144 1017.14 379.784 1015.85 379.064C1014.55 378.328 1013.52 377.312 1012.75 376.016C1012 374.72 1011.62 373.256 1011.62 371.624Z" fill="#000927"/>
</svg>
