<svg width="558" height="150" viewBox="0 0 558 150" fill="none" xmlns="http://www.w3.org/2000/svg">
<path d="M233.024 8.454V21H231.386V8.454H233.024ZM240.622 10.956C241.822 10.956 242.794 11.322 243.538 12.054C244.282 12.774 244.654 13.818 244.654 15.186V21H243.034V15.42C243.034 14.436 242.788 13.686 242.296 13.17C241.804 12.642 241.132 12.378 240.28 12.378C239.416 12.378 238.726 12.648 238.21 13.188C237.706 13.728 237.454 14.514 237.454 15.546V21H235.816V11.136H237.454V12.54C237.778 12.036 238.216 11.646 238.768 11.37C239.332 11.094 239.95 10.956 240.622 10.956ZM254.126 12.486V18.3C254.126 18.78 254.228 19.122 254.432 19.326C254.636 19.518 254.99 19.614 255.494 19.614H256.7V21H255.224C254.312 21 253.628 20.79 253.172 20.37C252.716 19.95 252.488 19.26 252.488 18.3V12.486H251.21V11.136H252.488V8.652H254.126V11.136H256.7V12.486H254.126ZM263.581 10.956C264.325 10.956 264.997 11.118 265.597 11.442C266.197 11.754 266.665 12.228 267.001 12.864C267.349 13.5 267.523 14.274 267.523 15.186V21H265.903V15.42C265.903 14.436 265.657 13.686 265.165 13.17C264.673 12.642 264.001 12.378 263.149 12.378C262.285 12.378 261.595 12.648 261.079 13.188C260.575 13.728 260.323 14.514 260.323 15.546V21H258.685V7.68H260.323V12.54C260.647 12.036 261.091 11.646 261.655 11.37C262.231 11.094 262.873 10.956 263.581 10.956ZM279.199 15.69C279.199 16.002 279.181 16.332 279.145 16.68H271.261C271.321 17.652 271.651 18.414 272.251 18.966C272.863 19.506 273.601 19.776 274.465 19.776C275.173 19.776 275.761 19.614 276.229 19.29C276.709 18.954 277.045 18.51 277.237 17.958H279.001C278.737 18.906 278.209 19.68 277.417 20.28C276.625 20.868 275.641 21.162 274.465 21.162C273.529 21.162 272.689 20.952 271.945 20.532C271.213 20.112 270.637 19.518 270.217 18.75C269.797 17.97 269.587 17.07 269.587 16.05C269.587 15.03 269.791 14.136 270.199 13.368C270.607 12.6 271.177 12.012 271.909 11.604C272.653 11.184 273.505 10.974 274.465 10.974C275.401 10.974 276.229 11.178 276.949 11.586C277.669 11.994 278.221 12.558 278.605 13.278C279.001 13.986 279.199 14.79 279.199 15.69ZM277.507 15.348C277.507 14.724 277.369 14.19 277.093 13.746C276.817 13.29 276.439 12.948 275.959 12.72C275.491 12.48 274.969 12.36 274.393 12.36C273.565 12.36 272.857 12.624 272.269 13.152C271.693 13.68 271.363 14.412 271.279 15.348H277.507ZM285.547 16.05C285.547 15.03 285.751 14.142 286.159 13.386C286.567 12.618 287.131 12.024 287.851 11.604C288.583 11.184 289.417 10.974 290.353 10.974C291.565 10.974 292.561 11.268 293.341 11.856C294.133 12.444 294.655 13.26 294.907 14.304H293.143C292.975 13.704 292.645 13.23 292.153 12.882C291.673 12.534 291.073 12.36 290.353 12.36C289.417 12.36 288.661 12.684 288.085 13.332C287.509 13.968 287.221 14.874 287.221 16.05C287.221 17.238 287.509 18.156 288.085 18.804C288.661 19.452 289.417 19.776 290.353 19.776C291.073 19.776 291.673 19.608 292.153 19.272C292.633 18.936 292.963 18.456 293.143 17.832H294.907C294.643 18.84 294.115 19.65 293.323 20.262C292.531 20.862 291.541 21.162 290.353 21.162C289.417 21.162 288.583 20.952 287.851 20.532C287.131 20.112 286.567 19.518 286.159 18.75C285.751 17.982 285.547 17.082 285.547 16.05ZM296.481 16.032C296.481 15.024 296.685 14.142 297.093 13.386C297.501 12.618 298.059 12.024 298.767 11.604C299.487 11.184 300.285 10.974 301.161 10.974C302.025 10.974 302.775 11.16 303.411 11.532C304.047 11.904 304.521 12.372 304.833 12.936V11.136H306.489V21H304.833V19.164C304.509 19.74 304.023 20.22 303.375 20.604C302.739 20.976 301.995 21.162 301.143 21.162C300.267 21.162 299.475 20.946 298.767 20.514C298.059 20.082 297.501 19.476 297.093 18.696C296.685 17.916 296.481 17.028 296.481 16.032ZM304.833 16.05C304.833 15.306 304.683 14.658 304.383 14.106C304.083 13.554 303.675 13.134 303.159 12.846C302.655 12.546 302.097 12.396 301.485 12.396C300.873 12.396 300.315 12.54 299.811 12.828C299.307 13.116 298.905 13.536 298.605 14.088C298.305 14.64 298.155 15.288 298.155 16.032C298.155 16.788 298.305 17.448 298.605 18.012C298.905 18.564 299.307 18.99 299.811 19.29C300.315 19.578 300.873 19.722 301.485 19.722C302.097 19.722 302.655 19.578 303.159 19.29C303.675 18.99 304.083 18.564 304.383 18.012C304.683 17.448 304.833 16.794 304.833 16.05ZM310.895 12.738C311.183 12.174 311.591 11.736 312.119 11.424C312.659 11.112 313.313 10.956 314.081 10.956V12.648H313.649C311.813 12.648 310.895 13.644 310.895 15.636V21H309.257V11.136H310.895V12.738ZM315.36 16.032C315.36 15.024 315.564 14.142 315.972 13.386C316.38 12.618 316.938 12.024 317.646 11.604C318.366 11.184 319.17 10.974 320.058 10.974C320.826 10.974 321.54 11.154 322.2 11.514C322.86 11.862 323.364 12.324 323.712 12.9V7.68H325.368V21H323.712V19.146C323.388 19.734 322.908 20.22 322.272 20.604C321.636 20.976 320.892 21.162 320.04 21.162C319.164 21.162 318.366 20.946 317.646 20.514C316.938 20.082 316.38 19.476 315.972 18.696C315.564 17.916 315.36 17.028 315.36 16.032ZM323.712 16.05C323.712 15.306 323.562 14.658 323.262 14.106C322.962 13.554 322.554 13.134 322.038 12.846C321.534 12.546 320.976 12.396 320.364 12.396C319.752 12.396 319.194 12.54 318.69 12.828C318.186 13.116 317.784 13.536 317.484 14.088C317.184 14.64 317.034 15.288 317.034 16.032C317.034 16.788 317.184 17.448 317.484 18.012C317.784 18.564 318.186 18.99 318.69 19.29C319.194 19.578 319.752 19.722 320.364 19.722C320.976 19.722 321.534 19.578 322.038 19.29C322.554 18.99 322.962 18.564 323.262 18.012C323.562 17.448 323.712 16.794 323.712 16.05ZM331.628 21.162C330.872 21.162 330.194 21.036 329.594 20.784C328.994 20.52 328.52 20.16 328.172 19.704C327.824 19.236 327.632 18.702 327.596 18.102H329.288C329.336 18.594 329.564 18.996 329.972 19.308C330.392 19.62 330.938 19.776 331.61 19.776C332.234 19.776 332.726 19.638 333.086 19.362C333.446 19.086 333.626 18.738 333.626 18.318C333.626 17.886 333.434 17.568 333.05 17.364C332.666 17.148 332.072 16.938 331.268 16.734C330.536 16.542 329.936 16.35 329.468 16.158C329.012 15.954 328.616 15.66 328.28 15.276C327.956 14.88 327.794 14.364 327.794 13.728C327.794 13.224 327.944 12.762 328.244 12.342C328.544 11.922 328.97 11.592 329.522 11.352C330.074 11.1 330.704 10.974 331.412 10.974C332.504 10.974 333.386 11.25 334.058 11.802C334.73 12.354 335.09 13.11 335.138 14.07H333.5C333.464 13.554 333.254 13.14 332.87 12.828C332.498 12.516 331.994 12.36 331.358 12.36C330.77 12.36 330.302 12.486 329.954 12.738C329.606 12.99 329.432 13.32 329.432 13.728C329.432 14.052 329.534 14.322 329.738 14.538C329.954 14.742 330.218 14.91 330.53 15.042C330.854 15.162 331.298 15.3 331.862 15.456C332.57 15.648 333.146 15.84 333.59 16.032C334.034 16.212 334.412 16.488 334.724 16.86C335.048 17.232 335.216 17.718 335.228 18.318C335.228 18.858 335.078 19.344 334.778 19.776C334.478 20.208 334.052 20.55 333.5 20.802C332.96 21.042 332.336 21.162 331.628 21.162ZM346.641 21.162C345.717 21.162 344.877 20.952 344.121 20.532C343.377 20.112 342.789 19.518 342.357 18.75C341.937 17.97 341.727 17.07 341.727 16.05C341.727 15.042 341.943 14.154 342.375 13.386C342.819 12.606 343.419 12.012 344.175 11.604C344.931 11.184 345.777 10.974 346.713 10.974C347.649 10.974 348.495 11.184 349.251 11.604C350.007 12.012 350.601 12.6 351.033 13.368C351.477 14.136 351.699 15.03 351.699 16.05C351.699 17.07 351.471 17.97 351.015 18.75C350.571 19.518 349.965 20.112 349.197 20.532C348.429 20.952 347.577 21.162 346.641 21.162ZM346.641 19.722C347.229 19.722 347.781 19.584 348.297 19.308C348.813 19.032 349.227 18.618 349.539 18.066C349.863 17.514 350.025 16.842 350.025 16.05C350.025 15.258 349.869 14.586 349.557 14.034C349.245 13.482 348.837 13.074 348.333 12.81C347.829 12.534 347.283 12.396 346.695 12.396C346.095 12.396 345.543 12.534 345.039 12.81C344.547 13.074 344.151 13.482 343.851 14.034C343.551 14.586 343.401 15.258 343.401 16.05C343.401 16.854 343.545 17.532 343.833 18.084C344.133 18.636 344.529 19.05 345.021 19.326C345.513 19.59 346.053 19.722 346.641 19.722ZM357.867 12.486H355.797V21H354.159V12.486H352.881V11.136H354.159V10.434C354.159 9.33 354.441 8.526 355.005 8.022C355.581 7.506 356.499 7.248 357.759 7.248V8.616C357.039 8.616 356.529 8.76 356.229 9.048C355.941 9.324 355.797 9.786 355.797 10.434V11.136H357.867V12.486ZM363.963 16.032C363.963 15.024 364.167 14.142 364.575 13.386C364.983 12.618 365.541 12.024 366.249 11.604C366.969 11.184 367.767 10.974 368.643 10.974C369.507 10.974 370.257 11.16 370.893 11.532C371.529 11.904 372.003 12.372 372.315 12.936V11.136H373.971V21H372.315V19.164C371.991 19.74 371.505 20.22 370.857 20.604C370.221 20.976 369.477 21.162 368.625 21.162C367.749 21.162 366.957 20.946 366.249 20.514C365.541 20.082 364.983 19.476 364.575 18.696C364.167 17.916 363.963 17.028 363.963 16.032ZM372.315 16.05C372.315 15.306 372.165 14.658 371.865 14.106C371.565 13.554 371.157 13.134 370.641 12.846C370.137 12.546 369.579 12.396 368.967 12.396C368.355 12.396 367.797 12.54 367.293 12.828C366.789 13.116 366.387 13.536 366.087 14.088C365.787 14.64 365.637 15.288 365.637 16.032C365.637 16.788 365.787 17.448 366.087 18.012C366.387 18.564 366.789 18.99 367.293 19.29C367.797 19.578 368.355 19.722 368.967 19.722C369.579 19.722 370.137 19.578 370.641 19.29C371.157 18.99 371.565 18.564 371.865 18.012C372.165 17.448 372.315 16.794 372.315 16.05ZM376.128 16.05C376.128 15.03 376.332 14.142 376.74 13.386C377.148 12.618 377.712 12.024 378.432 11.604C379.164 11.184 379.998 10.974 380.934 10.974C382.146 10.974 383.142 11.268 383.922 11.856C384.714 12.444 385.236 13.26 385.488 14.304H383.724C383.556 13.704 383.226 13.23 382.734 12.882C382.254 12.534 381.654 12.36 380.934 12.36C379.998 12.36 379.242 12.684 378.666 13.332C378.09 13.968 377.802 14.874 377.802 16.05C377.802 17.238 378.09 18.156 378.666 18.804C379.242 19.452 379.998 19.776 380.934 19.776C381.654 19.776 382.254 19.608 382.734 19.272C383.214 18.936 383.544 18.456 383.724 17.832H385.488C385.224 18.84 384.696 19.65 383.904 20.262C383.112 20.862 382.122 21.162 380.934 21.162C379.998 21.162 379.164 20.952 378.432 20.532C377.712 20.112 377.148 19.518 376.74 18.75C376.332 17.982 376.128 17.082 376.128 16.05ZM389.671 12.486V18.3C389.671 18.78 389.773 19.122 389.977 19.326C390.181 19.518 390.535 19.614 391.039 19.614H392.245V21H390.769C389.857 21 389.173 20.79 388.717 20.37C388.261 19.95 388.033 19.26 388.033 18.3V12.486H386.755V11.136H388.033V8.652H389.671V11.136H392.245V12.486H389.671ZM395.076 9.534C394.764 9.534 394.5 9.426 394.284 9.21C394.068 8.994 393.96 8.73 393.96 8.418C393.96 8.106 394.068 7.842 394.284 7.626C394.5 7.41 394.764 7.302 395.076 7.302C395.376 7.302 395.628 7.41 395.832 7.626C396.048 7.842 396.156 8.106 396.156 8.418C396.156 8.73 396.048 8.994 395.832 9.21C395.628 9.426 395.376 9.534 395.076 9.534ZM395.868 11.136V21H394.23V11.136H395.868ZM402.331 19.488L405.391 11.136H407.137L403.267 21H401.359L397.489 11.136H399.253L402.331 19.488ZM417.749 15.69C417.749 16.002 417.731 16.332 417.695 16.68H409.811C409.871 17.652 410.201 18.414 410.801 18.966C411.413 19.506 412.151 19.776 413.015 19.776C413.723 19.776 414.311 19.614 414.779 19.29C415.259 18.954 415.595 18.51 415.787 17.958H417.551C417.287 18.906 416.759 19.68 415.967 20.28C415.175 20.868 414.191 21.162 413.015 21.162C412.079 21.162 411.239 20.952 410.495 20.532C409.763 20.112 409.187 19.518 408.767 18.75C408.347 17.97 408.137 17.07 408.137 16.05C408.137 15.03 408.341 14.136 408.749 13.368C409.157 12.6 409.727 12.012 410.459 11.604C411.203 11.184 412.055 10.974 413.015 10.974C413.951 10.974 414.779 11.178 415.499 11.586C416.219 11.994 416.771 12.558 417.155 13.278C417.551 13.986 417.749 14.79 417.749 15.69ZM416.057 15.348C416.057 14.724 415.919 14.19 415.643 13.746C415.367 13.29 414.989 12.948 414.509 12.72C414.041 12.48 413.519 12.36 412.943 12.36C412.115 12.36 411.407 12.624 410.819 13.152C410.243 13.68 409.913 14.412 409.829 15.348H416.057ZM426.348 12.954C426.672 12.39 427.152 11.922 427.788 11.55C428.436 11.166 429.186 10.974 430.038 10.974C430.914 10.974 431.706 11.184 432.414 11.604C433.134 12.024 433.698 12.618 434.106 13.386C434.514 14.142 434.718 15.024 434.718 16.032C434.718 17.028 434.514 17.916 434.106 18.696C433.698 19.476 433.134 20.082 432.414 20.514C431.706 20.946 430.914 21.162 430.038 21.162C429.198 21.162 428.454 20.976 427.806 20.604C427.17 20.22 426.684 19.746 426.348 19.182V25.68H424.71V11.136H426.348V12.954ZM433.044 16.032C433.044 15.288 432.894 14.64 432.594 14.088C432.294 13.536 431.886 13.116 431.37 12.828C430.866 12.54 430.308 12.396 429.696 12.396C429.096 12.396 428.538 12.546 428.022 12.846C427.518 13.134 427.11 13.56 426.798 14.124C426.498 14.676 426.348 15.318 426.348 16.05C426.348 16.794 426.498 17.448 426.798 18.012C427.11 18.564 427.518 18.99 428.022 19.29C428.538 19.578 429.096 19.722 429.696 19.722C430.308 19.722 430.866 19.578 431.37 19.29C431.886 18.99 432.294 18.564 432.594 18.012C432.894 17.448 433.044 16.788 433.044 16.032ZM438.512 12.738C438.8 12.174 439.208 11.736 439.736 11.424C440.276 11.112 440.93 10.956 441.698 10.956V12.648H441.266C439.43 12.648 438.512 13.644 438.512 15.636V21H436.874V11.136H438.512V12.738ZM447.891 21.162C446.967 21.162 446.127 20.952 445.371 20.532C444.627 20.112 444.039 19.518 443.607 18.75C443.187 17.97 442.977 17.07 442.977 16.05C442.977 15.042 443.193 14.154 443.625 13.386C444.069 12.606 444.669 12.012 445.425 11.604C446.181 11.184 447.027 10.974 447.963 10.974C448.899 10.974 449.745 11.184 450.501 11.604C451.257 12.012 451.851 12.6 452.283 13.368C452.727 14.136 452.949 15.03 452.949 16.05C452.949 17.07 452.721 17.97 452.265 18.75C451.821 19.518 451.215 20.112 450.447 20.532C449.679 20.952 448.827 21.162 447.891 21.162ZM447.891 19.722C448.479 19.722 449.031 19.584 449.547 19.308C450.063 19.032 450.477 18.618 450.789 18.066C451.113 17.514 451.275 16.842 451.275 16.05C451.275 15.258 451.119 14.586 450.807 14.034C450.495 13.482 450.087 13.074 449.583 12.81C449.079 12.534 448.533 12.396 447.945 12.396C447.345 12.396 446.793 12.534 446.289 12.81C445.797 13.074 445.401 13.482 445.101 14.034C444.801 14.586 444.651 15.258 444.651 16.05C444.651 16.854 444.795 17.532 445.083 18.084C445.383 18.636 445.779 19.05 446.271 19.326C446.763 19.59 447.303 19.722 447.891 19.722ZM454.491 16.05C454.491 15.03 454.695 14.142 455.103 13.386C455.511 12.618 456.075 12.024 456.795 11.604C457.527 11.184 458.361 10.974 459.297 10.974C460.509 10.974 461.505 11.268 462.285 11.856C463.077 12.444 463.599 13.26 463.851 14.304H462.087C461.919 13.704 461.589 13.23 461.097 12.882C460.617 12.534 460.017 12.36 459.297 12.36C458.361 12.36 457.605 12.684 457.029 13.332C456.453 13.968 456.165 14.874 456.165 16.05C456.165 17.238 456.453 18.156 457.029 18.804C457.605 19.452 458.361 19.776 459.297 19.776C460.017 19.776 460.617 19.608 461.097 19.272C461.577 18.936 461.907 18.456 462.087 17.832H463.851C463.587 18.84 463.059 19.65 462.267 20.262C461.475 20.862 460.485 21.162 459.297 21.162C458.361 21.162 457.527 20.952 456.795 20.532C456.075 20.112 455.511 19.518 455.103 18.75C454.695 17.982 454.491 17.082 454.491 16.05ZM475.036 15.69C475.036 16.002 475.018 16.332 474.982 16.68H467.098C467.158 17.652 467.488 18.414 468.088 18.966C468.7 19.506 469.438 19.776 470.302 19.776C471.01 19.776 471.598 19.614 472.066 19.29C472.546 18.954 472.882 18.51 473.074 17.958H474.838C474.574 18.906 474.046 19.68 473.254 20.28C472.462 20.868 471.478 21.162 470.302 21.162C469.366 21.162 468.526 20.952 467.782 20.532C467.05 20.112 466.474 19.518 466.054 18.75C465.634 17.97 465.424 17.07 465.424 16.05C465.424 15.03 465.628 14.136 466.036 13.368C466.444 12.6 467.014 12.012 467.746 11.604C468.49 11.184 469.342 10.974 470.302 10.974C471.238 10.974 472.066 11.178 472.786 11.586C473.506 11.994 474.058 12.558 474.442 13.278C474.838 13.986 475.036 14.79 475.036 15.69ZM473.344 15.348C473.344 14.724 473.206 14.19 472.93 13.746C472.654 13.29 472.276 12.948 471.796 12.72C471.328 12.48 470.806 12.36 470.23 12.36C469.402 12.36 468.694 12.624 468.106 13.152C467.53 13.68 467.2 14.412 467.116 15.348H473.344ZM480.691 21.162C479.935 21.162 479.257 21.036 478.657 20.784C478.057 20.52 477.583 20.16 477.235 19.704C476.887 19.236 476.695 18.702 476.659 18.102H478.351C478.399 18.594 478.627 18.996 479.035 19.308C479.455 19.62 480.001 19.776 480.673 19.776C481.297 19.776 481.789 19.638 482.149 19.362C482.509 19.086 482.689 18.738 482.689 18.318C482.689 17.886 482.497 17.568 482.113 17.364C481.729 17.148 481.135 16.938 480.331 16.734C479.599 16.542 478.999 16.35 478.531 16.158C478.075 15.954 477.679 15.66 477.343 15.276C477.019 14.88 476.857 14.364 476.857 13.728C476.857 13.224 477.007 12.762 477.307 12.342C477.607 11.922 478.033 11.592 478.585 11.352C479.137 11.1 479.767 10.974 480.475 10.974C481.567 10.974 482.449 11.25 483.121 11.802C483.793 12.354 484.153 13.11 484.201 14.07H482.563C482.527 13.554 482.317 13.14 481.933 12.828C481.561 12.516 481.057 12.36 480.421 12.36C479.833 12.36 479.365 12.486 479.017 12.738C478.669 12.99 478.495 13.32 478.495 13.728C478.495 14.052 478.597 14.322 478.801 14.538C479.017 14.742 479.281 14.91 479.593 15.042C479.917 15.162 480.361 15.3 480.925 15.456C481.633 15.648 482.209 15.84 482.653 16.032C483.097 16.212 483.475 16.488 483.787 16.86C484.111 17.232 484.279 17.718 484.291 18.318C484.291 18.858 484.141 19.344 483.841 19.776C483.541 20.208 483.115 20.55 482.563 20.802C482.023 21.042 481.399 21.162 480.691 21.162ZM490.095 21.162C489.339 21.162 488.661 21.036 488.061 20.784C487.461 20.52 486.987 20.16 486.639 19.704C486.291 19.236 486.099 18.702 486.063 18.102H487.755C487.803 18.594 488.031 18.996 488.439 19.308C488.859 19.62 489.405 19.776 490.077 19.776C490.701 19.776 491.193 19.638 491.553 19.362C491.913 19.086 492.093 18.738 492.093 18.318C492.093 17.886 491.901 17.568 491.517 17.364C491.133 17.148 490.539 16.938 489.735 16.734C489.003 16.542 488.403 16.35 487.935 16.158C487.479 15.954 487.083 15.66 486.747 15.276C486.423 14.88 486.261 14.364 486.261 13.728C486.261 13.224 486.411 12.762 486.711 12.342C487.011 11.922 487.437 11.592 487.989 11.352C488.541 11.1 489.171 10.974 489.879 10.974C490.971 10.974 491.853 11.25 492.525 11.802C493.197 12.354 493.557 13.11 493.605 14.07H491.967C491.931 13.554 491.721 13.14 491.337 12.828C490.965 12.516 490.461 12.36 489.825 12.36C489.237 12.36 488.769 12.486 488.421 12.738C488.073 12.99 487.899 13.32 487.899 13.728C487.899 14.052 488.001 14.322 488.205 14.538C488.421 14.742 488.685 14.91 488.997 15.042C489.321 15.162 489.765 15.3 490.329 15.456C491.037 15.648 491.613 15.84 492.057 16.032C492.501 16.212 492.879 16.488 493.191 16.86C493.515 17.232 493.683 17.718 493.695 18.318C493.695 18.858 493.545 19.344 493.245 19.776C492.945 20.208 492.519 20.55 491.967 20.802C491.427 21.042 490.803 21.162 490.095 21.162ZM505.007 15.69C505.007 16.002 504.989 16.332 504.953 16.68H497.069C497.129 17.652 497.459 18.414 498.059 18.966C498.671 19.506 499.409 19.776 500.273 19.776C500.981 19.776 501.569 19.614 502.037 19.29C502.517 18.954 502.853 18.51 503.045 17.958H504.809C504.545 18.906 504.017 19.68 503.225 20.28C502.433 20.868 501.449 21.162 500.273 21.162C499.337 21.162 498.497 20.952 497.753 20.532C497.021 20.112 496.445 19.518 496.025 18.75C495.605 17.97 495.395 17.07 495.395 16.05C495.395 15.03 495.599 14.136 496.007 13.368C496.415 12.6 496.985 12.012 497.717 11.604C498.461 11.184 499.313 10.974 500.273 10.974C501.209 10.974 502.037 11.178 502.757 11.586C503.477 11.994 504.029 12.558 504.413 13.278C504.809 13.986 505.007 14.79 505.007 15.69ZM503.315 15.348C503.315 14.724 503.177 14.19 502.901 13.746C502.625 13.29 502.247 12.948 501.767 12.72C501.299 12.48 500.777 12.36 500.201 12.36C499.373 12.36 498.665 12.624 498.077 13.152C497.501 13.68 497.171 14.412 497.087 15.348H503.315ZM510.661 21.162C509.905 21.162 509.227 21.036 508.627 20.784C508.027 20.52 507.553 20.16 507.205 19.704C506.857 19.236 506.665 18.702 506.629 18.102H508.321C508.369 18.594 508.597 18.996 509.005 19.308C509.425 19.62 509.971 19.776 510.643 19.776C511.267 19.776 511.759 19.638 512.119 19.362C512.479 19.086 512.659 18.738 512.659 18.318C512.659 17.886 512.467 17.568 512.083 17.364C511.699 17.148 511.105 16.938 510.301 16.734C509.569 16.542 508.969 16.35 508.501 16.158C508.045 15.954 507.649 15.66 507.313 15.276C506.989 14.88 506.827 14.364 506.827 13.728C506.827 13.224 506.977 12.762 507.277 12.342C507.577 11.922 508.003 11.592 508.555 11.352C509.107 11.1 509.737 10.974 510.445 10.974C511.537 10.974 512.419 11.25 513.091 11.802C513.763 12.354 514.123 13.11 514.171 14.07H512.533C512.497 13.554 512.287 13.14 511.903 12.828C511.531 12.516 511.027 12.36 510.391 12.36C509.803 12.36 509.335 12.486 508.987 12.738C508.639 12.99 508.465 13.32 508.465 13.728C508.465 14.052 508.567 14.322 508.771 14.538C508.987 14.742 509.251 14.91 509.563 15.042C509.887 15.162 510.331 15.3 510.895 15.456C511.603 15.648 512.179 15.84 512.623 16.032C513.067 16.212 513.445 16.488 513.757 16.86C514.081 17.232 514.249 17.718 514.261 18.318C514.261 18.858 514.111 19.344 513.811 19.776C513.511 20.208 513.085 20.55 512.533 20.802C511.993 21.042 511.369 21.162 510.661 21.162ZM518.266 18.732L516.25 23.574H515.151L516.466 18.732H518.266ZM533.437 11.136L527.497 25.644H525.805L527.749 20.892L523.771 11.136H525.589L528.685 19.128L531.745 11.136H533.437ZM539.385 21.162C538.461 21.162 537.621 20.952 536.865 20.532C536.121 20.112 535.533 19.518 535.101 18.75C534.681 17.97 534.471 17.07 534.471 16.05C534.471 15.042 534.687 14.154 535.119 13.386C535.563 12.606 536.163 12.012 536.919 11.604C537.675 11.184 538.521 10.974 539.457 10.974C540.393 10.974 541.239 11.184 541.995 11.604C542.751 12.012 543.345 12.6 543.777 13.368C544.221 14.136 544.443 15.03 544.443 16.05C544.443 17.07 544.215 17.97 543.759 18.75C543.315 19.518 542.709 20.112 541.941 20.532C541.173 20.952 540.321 21.162 539.385 21.162ZM539.385 19.722C539.973 19.722 540.525 19.584 541.041 19.308C541.557 19.032 541.971 18.618 542.283 18.066C542.607 17.514 542.769 16.842 542.769 16.05C542.769 15.258 542.613 14.586 542.301 14.034C541.989 13.482 541.581 13.074 541.077 12.81C540.573 12.534 540.027 12.396 539.439 12.396C538.839 12.396 538.287 12.534 537.783 12.81C537.291 13.074 536.895 13.482 536.595 14.034C536.295 14.586 536.145 15.258 536.145 16.05C536.145 16.854 536.289 17.532 536.577 18.084C536.877 18.636 537.273 19.05 537.765 19.326C538.257 19.59 538.797 19.722 539.385 19.722ZM555.345 11.136V21H553.707V19.542C553.395 20.046 552.957 20.442 552.393 20.73C551.841 21.006 551.229 21.144 550.557 21.144C549.789 21.144 549.099 20.988 548.487 20.676C547.875 20.352 547.389 19.872 547.029 19.236C546.681 18.6 546.507 17.826 546.507 16.914V11.136H548.127V16.698C548.127 17.67 548.373 18.42 548.865 18.948C549.357 19.464 550.029 19.722 550.881 19.722C551.757 19.722 552.447 19.452 552.951 18.912C553.455 18.372 553.707 17.586 553.707 16.554V11.136H555.345ZM230.774 45.05C230.774 44.03 230.978 43.142 231.386 42.386C231.794 41.618 232.358 41.024 233.078 40.604C233.81 40.184 234.644 39.974 235.58 39.974C236.792 39.974 237.788 40.268 238.568 40.856C239.36 41.444 239.882 42.26 240.134 43.304H238.37C238.202 42.704 237.872 42.23 237.38 41.882C236.9 41.534 236.3 41.36 235.58 41.36C234.644 41.36 233.888 41.684 233.312 42.332C232.736 42.968 232.448 43.874 232.448 45.05C232.448 46.238 232.736 47.156 233.312 47.804C233.888 48.452 234.644 48.776 235.58 48.776C236.3 48.776 236.9 48.608 237.38 48.272C237.86 47.936 238.19 47.456 238.37 46.832H240.134C239.87 47.84 239.342 48.65 238.55 49.262C237.758 49.862 236.768 50.162 235.58 50.162C234.644 50.162 233.81 49.952 233.078 49.532C232.358 49.112 231.794 48.518 231.386 47.75C230.978 46.982 230.774 46.082 230.774 45.05ZM241.708 45.032C241.708 44.024 241.912 43.142 242.32 42.386C242.728 41.618 243.286 41.024 243.994 40.604C244.714 40.184 245.512 39.974 246.388 39.974C247.252 39.974 248.002 40.16 248.638 40.532C249.274 40.904 249.748 41.372 250.06 41.936V40.136H251.716V50H250.06V48.164C249.736 48.74 249.25 49.22 248.602 49.604C247.966 49.976 247.222 50.162 246.37 50.162C245.494 50.162 244.702 49.946 243.994 49.514C243.286 49.082 242.728 48.476 242.32 47.696C241.912 46.916 241.708 46.028 241.708 45.032ZM250.06 45.05C250.06 44.306 249.91 43.658 249.61 43.106C249.31 42.554 248.902 42.134 248.386 41.846C247.882 41.546 247.324 41.396 246.712 41.396C246.1 41.396 245.542 41.54 245.038 41.828C244.534 42.116 244.132 42.536 243.832 43.088C243.532 43.64 243.382 44.288 243.382 45.032C243.382 45.788 243.532 46.448 243.832 47.012C244.132 47.564 244.534 47.99 245.038 48.29C245.542 48.578 246.1 48.722 246.712 48.722C247.324 48.722 247.882 48.578 248.386 48.29C248.902 47.99 249.31 47.564 249.61 47.012C249.91 46.448 250.06 45.794 250.06 45.05ZM259.29 39.956C260.49 39.956 261.462 40.322 262.206 41.054C262.95 41.774 263.322 42.818 263.322 44.186V50H261.702V44.42C261.702 43.436 261.456 42.686 260.964 42.17C260.472 41.642 259.8 41.378 258.948 41.378C258.084 41.378 257.394 41.648 256.878 42.188C256.374 42.728 256.122 43.514 256.122 44.546V50H254.484V40.136H256.122V41.54C256.446 41.036 256.884 40.646 257.436 40.37C258 40.094 258.618 39.956 259.29 39.956ZM274.288 50.162C273.532 50.162 272.854 50.036 272.254 49.784C271.654 49.52 271.18 49.16 270.832 48.704C270.484 48.236 270.292 47.702 270.256 47.102H271.948C271.996 47.594 272.224 47.996 272.632 48.308C273.052 48.62 273.598 48.776 274.27 48.776C274.894 48.776 275.386 48.638 275.746 48.362C276.106 48.086 276.286 47.738 276.286 47.318C276.286 46.886 276.094 46.568 275.71 46.364C275.326 46.148 274.732 45.938 273.928 45.734C273.196 45.542 272.596 45.35 272.128 45.158C271.672 44.954 271.276 44.66 270.94 44.276C270.616 43.88 270.454 43.364 270.454 42.728C270.454 42.224 270.604 41.762 270.904 41.342C271.204 40.922 271.63 40.592 272.182 40.352C272.734 40.1 273.364 39.974 274.072 39.974C275.164 39.974 276.046 40.25 276.718 40.802C277.39 41.354 277.75 42.11 277.798 43.07H276.16C276.124 42.554 275.914 42.14 275.53 41.828C275.158 41.516 274.654 41.36 274.018 41.36C273.43 41.36 272.962 41.486 272.614 41.738C272.266 41.99 272.092 42.32 272.092 42.728C272.092 43.052 272.194 43.322 272.398 43.538C272.614 43.742 272.878 43.91 273.19 44.042C273.514 44.162 273.958 44.3 274.522 44.456C275.23 44.648 275.806 44.84 276.25 45.032C276.694 45.212 277.072 45.488 277.384 45.86C277.708 46.232 277.876 46.718 277.888 47.318C277.888 47.858 277.738 48.344 277.438 48.776C277.138 49.208 276.712 49.55 276.16 49.802C275.62 50.042 274.996 50.162 274.288 50.162ZM289.2 44.69C289.2 45.002 289.182 45.332 289.146 45.68H281.262C281.322 46.652 281.652 47.414 282.252 47.966C282.864 48.506 283.602 48.776 284.466 48.776C285.174 48.776 285.762 48.614 286.23 48.29C286.71 47.954 287.046 47.51 287.238 46.958H289.002C288.738 47.906 288.21 48.68 287.418 49.28C286.626 49.868 285.642 50.162 284.466 50.162C283.53 50.162 282.69 49.952 281.946 49.532C281.214 49.112 280.638 48.518 280.218 47.75C279.798 46.97 279.588 46.07 279.588 45.05C279.588 44.03 279.792 43.136 280.2 42.368C280.608 41.6 281.178 41.012 281.91 40.604C282.654 40.184 283.506 39.974 284.466 39.974C285.402 39.974 286.23 40.178 286.95 40.586C287.67 40.994 288.222 41.558 288.606 42.278C289.002 42.986 289.2 43.79 289.2 44.69ZM287.508 44.348C287.508 43.724 287.37 43.19 287.094 42.746C286.818 42.29 286.44 41.948 285.96 41.72C285.492 41.48 284.97 41.36 284.394 41.36C283.566 41.36 282.858 41.624 282.27 42.152C281.694 42.68 281.364 43.412 281.28 44.348H287.508ZM300.363 44.69C300.363 45.002 300.345 45.332 300.309 45.68H292.425C292.485 46.652 292.815 47.414 293.415 47.966C294.027 48.506 294.765 48.776 295.629 48.776C296.337 48.776 296.925 48.614 297.393 48.29C297.873 47.954 298.209 47.51 298.401 46.958H300.165C299.901 47.906 299.373 48.68 298.581 49.28C297.789 49.868 296.805 50.162 295.629 50.162C294.693 50.162 293.853 49.952 293.109 49.532C292.377 49.112 291.801 48.518 291.381 47.75C290.961 46.97 290.751 46.07 290.751 45.05C290.751 44.03 290.955 43.136 291.363 42.368C291.771 41.6 292.341 41.012 293.073 40.604C293.817 40.184 294.669 39.974 295.629 39.974C296.565 39.974 297.393 40.178 298.113 40.586C298.833 40.994 299.385 41.558 299.769 42.278C300.165 42.986 300.363 43.79 300.363 44.69ZM298.671 44.348C298.671 43.724 298.533 43.19 298.257 42.746C297.981 42.29 297.603 41.948 297.123 41.72C296.655 41.48 296.133 41.36 295.557 41.36C294.729 41.36 294.021 41.624 293.433 42.152C292.857 42.68 292.527 43.412 292.443 44.348H298.671ZM309.322 41.486V47.3C309.322 47.78 309.424 48.122 309.628 48.326C309.832 48.518 310.186 48.614 310.689 48.614H311.896V50H310.42C309.508 50 308.824 49.79 308.368 49.37C307.912 48.95 307.684 48.26 307.684 47.3V41.486H306.406V40.136H307.684V37.652H309.322V40.136H311.896V41.486H309.322ZM318.776 39.956C319.52 39.956 320.192 40.118 320.792 40.442C321.392 40.754 321.86 41.228 322.196 41.864C322.544 42.5 322.718 43.274 322.718 44.186V50H321.098V44.42C321.098 43.436 320.852 42.686 320.36 42.17C319.868 41.642 319.196 41.378 318.344 41.378C317.48 41.378 316.79 41.648 316.274 42.188C315.77 42.728 315.518 43.514 315.518 44.546V50H313.88V36.68H315.518V41.54C315.842 41.036 316.286 40.646 316.85 40.37C317.426 40.094 318.068 39.956 318.776 39.956ZM334.394 44.69C334.394 45.002 334.376 45.332 334.34 45.68H326.456C326.516 46.652 326.846 47.414 327.446 47.966C328.058 48.506 328.796 48.776 329.66 48.776C330.368 48.776 330.956 48.614 331.424 48.29C331.904 47.954 332.24 47.51 332.432 46.958H334.196C333.932 47.906 333.404 48.68 332.612 49.28C331.82 49.868 330.836 50.162 329.66 50.162C328.724 50.162 327.884 49.952 327.14 49.532C326.408 49.112 325.832 48.518 325.412 47.75C324.992 46.97 324.782 46.07 324.782 45.05C324.782 44.03 324.986 43.136 325.394 42.368C325.802 41.6 326.372 41.012 327.104 40.604C327.848 40.184 328.7 39.974 329.66 39.974C330.596 39.974 331.424 40.178 332.144 40.586C332.864 40.994 333.416 41.558 333.8 42.278C334.196 42.986 334.394 43.79 334.394 44.69ZM332.702 44.348C332.702 43.724 332.564 43.19 332.288 42.746C332.012 42.29 331.634 41.948 331.154 41.72C330.686 41.48 330.164 41.36 329.588 41.36C328.76 41.36 328.052 41.624 327.464 42.152C326.888 42.68 326.558 43.412 326.474 44.348H332.702ZM340.743 45.05C340.743 44.03 340.947 43.142 341.355 42.386C341.763 41.618 342.327 41.024 343.047 40.604C343.779 40.184 344.613 39.974 345.549 39.974C346.761 39.974 347.757 40.268 348.537 40.856C349.329 41.444 349.851 42.26 350.103 43.304H348.339C348.171 42.704 347.841 42.23 347.349 41.882C346.869 41.534 346.269 41.36 345.549 41.36C344.613 41.36 343.857 41.684 343.281 42.332C342.705 42.968 342.417 43.874 342.417 45.05C342.417 46.238 342.705 47.156 343.281 47.804C343.857 48.452 344.613 48.776 345.549 48.776C346.269 48.776 346.869 48.608 347.349 48.272C347.829 47.936 348.159 47.456 348.339 46.832H350.103C349.839 47.84 349.311 48.65 348.519 49.262C347.727 49.862 346.737 50.162 345.549 50.162C344.613 50.162 343.779 49.952 343.047 49.532C342.327 49.112 341.763 48.518 341.355 47.75C340.947 46.982 340.743 46.082 340.743 45.05ZM361.036 40.136V50H359.398V48.542C359.086 49.046 358.648 49.442 358.084 49.73C357.532 50.006 356.92 50.144 356.248 50.144C355.48 50.144 354.79 49.988 354.178 49.676C353.566 49.352 353.08 48.872 352.72 48.236C352.372 47.6 352.198 46.826 352.198 45.914V40.136H353.818V45.698C353.818 46.67 354.064 47.42 354.556 47.948C355.048 48.464 355.72 48.722 356.572 48.722C357.448 48.722 358.138 48.452 358.642 47.912C359.146 47.372 359.398 46.586 359.398 45.554V40.136H361.036ZM365.44 41.738C365.728 41.174 366.136 40.736 366.664 40.424C367.204 40.112 367.858 39.956 368.626 39.956V41.648H368.194C366.358 41.648 365.44 42.644 365.44 44.636V50H363.802V40.136H365.44V41.738ZM372.155 41.738C372.443 41.174 372.851 40.736 373.379 40.424C373.919 40.112 374.573 39.956 375.341 39.956V41.648H374.909C373.073 41.648 372.155 42.644 372.155 44.636V50H370.517V40.136H372.155V41.738ZM386.232 44.69C386.232 45.002 386.214 45.332 386.178 45.68H378.294C378.354 46.652 378.684 47.414 379.284 47.966C379.896 48.506 380.634 48.776 381.498 48.776C382.206 48.776 382.794 48.614 383.262 48.29C383.742 47.954 384.078 47.51 384.27 46.958H386.034C385.77 47.906 385.242 48.68 384.45 49.28C383.658 49.868 382.674 50.162 381.498 50.162C380.562 50.162 379.722 49.952 378.978 49.532C378.246 49.112 377.67 48.518 377.25 47.75C376.83 46.97 376.62 46.07 376.62 45.05C376.62 44.03 376.824 43.136 377.232 42.368C377.64 41.6 378.21 41.012 378.942 40.604C379.686 40.184 380.538 39.974 381.498 39.974C382.434 39.974 383.262 40.178 383.982 40.586C384.702 40.994 385.254 41.558 385.638 42.278C386.034 42.986 386.232 43.79 386.232 44.69ZM384.54 44.348C384.54 43.724 384.402 43.19 384.126 42.746C383.85 42.29 383.472 41.948 382.992 41.72C382.524 41.48 382.002 41.36 381.426 41.36C380.598 41.36 379.89 41.624 379.302 42.152C378.726 42.68 378.396 43.412 378.312 44.348H384.54ZM393.2 39.956C394.4 39.956 395.372 40.322 396.116 41.054C396.86 41.774 397.232 42.818 397.232 44.186V50H395.612V44.42C395.612 43.436 395.366 42.686 394.874 42.17C394.382 41.642 393.71 41.378 392.858 41.378C391.994 41.378 391.304 41.648 390.788 42.188C390.284 42.728 390.032 43.514 390.032 44.546V50H388.394V40.136H390.032V41.54C390.356 41.036 390.794 40.646 391.346 40.37C391.91 40.094 392.528 39.956 393.2 39.956ZM401.905 41.486V47.3C401.905 47.78 402.007 48.122 402.211 48.326C402.415 48.518 402.769 48.614 403.273 48.614H404.479V50H403.003C402.091 50 401.407 49.79 400.951 49.37C400.495 48.95 400.267 48.26 400.267 47.3V41.486H398.989V40.136H400.267V37.652H401.905V40.136H404.479V41.486H401.905ZM412.109 38.534C411.797 38.534 411.533 38.426 411.317 38.21C411.101 37.994 410.993 37.73 410.993 37.418C410.993 37.106 411.101 36.842 411.317 36.626C411.533 36.41 411.797 36.302 412.109 36.302C412.409 36.302 412.661 36.41 412.865 36.626C413.081 36.842 413.189 37.106 413.189 37.418C413.189 37.73 413.081 37.994 412.865 38.21C412.661 38.426 412.409 38.534 412.109 38.534ZM412.901 40.136V50H411.263V40.136H412.901ZM420.499 39.956C421.699 39.956 422.671 40.322 423.415 41.054C424.159 41.774 424.531 42.818 424.531 44.186V50H422.911V44.42C422.911 43.436 422.665 42.686 422.173 42.17C421.681 41.642 421.009 41.378 420.157 41.378C419.293 41.378 418.603 41.648 418.087 42.188C417.583 42.728 417.331 43.514 417.331 44.546V50H415.693V40.136H417.331V41.54C417.655 41.036 418.093 40.646 418.645 40.37C419.209 40.094 419.827 39.956 420.499 39.956ZM431.22 41.486H429.15V50H427.512V41.486H426.234V40.136H427.512V39.434C427.512 38.33 427.794 37.526 428.358 37.022C428.934 36.506 429.852 36.248 431.112 36.248V37.616C430.392 37.616 429.882 37.76 429.582 38.048C429.294 38.324 429.15 38.786 429.15 39.434V40.136H431.22V41.486ZM437.432 50.162C436.508 50.162 435.668 49.952 434.912 49.532C434.168 49.112 433.58 48.518 433.148 47.75C432.728 46.97 432.518 46.07 432.518 45.05C432.518 44.042 432.734 43.154 433.166 42.386C433.61 41.606 434.21 41.012 434.966 40.604C435.722 40.184 436.568 39.974 437.504 39.974C438.44 39.974 439.286 40.184 440.042 40.604C440.798 41.012 441.392 41.6 441.824 42.368C442.268 43.136 442.49 44.03 442.49 45.05C442.49 46.07 442.262 46.97 441.806 47.75C441.362 48.518 440.756 49.112 439.988 49.532C439.22 49.952 438.368 50.162 437.432 50.162ZM437.432 48.722C438.02 48.722 438.572 48.584 439.088 48.308C439.604 48.032 440.018 47.618 440.33 47.066C440.654 46.514 440.816 45.842 440.816 45.05C440.816 44.258 440.66 43.586 440.348 43.034C440.036 42.482 439.628 42.074 439.124 41.81C438.62 41.534 438.074 41.396 437.486 41.396C436.886 41.396 436.334 41.534 435.83 41.81C435.338 42.074 434.942 42.482 434.642 43.034C434.342 43.586 434.192 44.258 434.192 45.05C434.192 45.854 434.336 46.532 434.624 47.084C434.924 47.636 435.32 48.05 435.812 48.326C436.304 48.59 436.844 48.722 437.432 48.722ZM456.506 39.956C457.274 39.956 457.958 40.118 458.558 40.442C459.158 40.754 459.632 41.228 459.98 41.864C460.328 42.5 460.502 43.274 460.502 44.186V50H458.882V44.42C458.882 43.436 458.636 42.686 458.144 42.17C457.664 41.642 457.01 41.378 456.182 41.378C455.33 41.378 454.652 41.654 454.148 42.206C453.644 42.746 453.392 43.532 453.392 44.564V50H451.772V44.42C451.772 43.436 451.526 42.686 451.034 42.17C450.554 41.642 449.9 41.378 449.072 41.378C448.22 41.378 447.542 41.654 447.038 42.206C446.534 42.746 446.282 43.532 446.282 44.564V50H444.644V40.136H446.282V41.558C446.606 41.042 447.038 40.646 447.578 40.37C448.13 40.094 448.736 39.956 449.396 39.956C450.224 39.956 450.956 40.142 451.592 40.514C452.228 40.886 452.702 41.432 453.014 42.152C453.29 41.456 453.746 40.916 454.382 40.532C455.018 40.148 455.726 39.956 456.506 39.956ZM462.577 45.032C462.577 44.024 462.781 43.142 463.189 42.386C463.597 41.618 464.155 41.024 464.863 40.604C465.583 40.184 466.381 39.974 467.257 39.974C468.121 39.974 468.871 40.16 469.507 40.532C470.143 40.904 470.617 41.372 470.929 41.936V40.136H472.585V50H470.929V48.164C470.605 48.74 470.119 49.22 469.471 49.604C468.835 49.976 468.091 50.162 467.239 50.162C466.363 50.162 465.571 49.946 464.863 49.514C464.155 49.082 463.597 48.476 463.189 47.696C462.781 46.916 462.577 46.028 462.577 45.032ZM470.929 45.05C470.929 44.306 470.779 43.658 470.479 43.106C470.179 42.554 469.771 42.134 469.255 41.846C468.751 41.546 468.193 41.396 467.581 41.396C466.969 41.396 466.411 41.54 465.907 41.828C465.403 42.116 465.001 42.536 464.701 43.088C464.401 43.64 464.251 44.288 464.251 45.032C464.251 45.788 464.401 46.448 464.701 47.012C465.001 47.564 465.403 47.99 465.907 48.29C466.411 48.578 466.969 48.722 467.581 48.722C468.193 48.722 468.751 48.578 469.255 48.29C469.771 47.99 470.179 47.564 470.479 47.012C470.779 46.448 470.929 45.794 470.929 45.05ZM477.351 41.486V47.3C477.351 47.78 477.453 48.122 477.657 48.326C477.861 48.518 478.215 48.614 478.719 48.614H479.925V50H478.449C477.537 50 476.853 49.79 476.397 49.37C475.941 48.95 475.713 48.26 475.713 47.3V41.486H474.435V40.136H475.713V37.652H477.351V40.136H479.925V41.486H477.351ZM482.755 38.534C482.443 38.534 482.179 38.426 481.963 38.21C481.747 37.994 481.639 37.73 481.639 37.418C481.639 37.106 481.747 36.842 481.963 36.626C482.179 36.41 482.443 36.302 482.755 36.302C483.055 36.302 483.307 36.41 483.511 36.626C483.727 36.842 483.835 37.106 483.835 37.418C483.835 37.73 483.727 37.994 483.511 38.21C483.307 38.426 483.055 38.534 482.755 38.534ZM483.547 40.136V50H481.909V40.136H483.547ZM490.641 50.162C489.717 50.162 488.877 49.952 488.121 49.532C487.377 49.112 486.789 48.518 486.357 47.75C485.937 46.97 485.727 46.07 485.727 45.05C485.727 44.042 485.943 43.154 486.375 42.386C486.819 41.606 487.419 41.012 488.175 40.604C488.931 40.184 489.777 39.974 490.713 39.974C491.649 39.974 492.495 40.184 493.251 40.604C494.007 41.012 494.601 41.6 495.033 42.368C495.477 43.136 495.699 44.03 495.699 45.05C495.699 46.07 495.471 46.97 495.015 47.75C494.571 48.518 493.965 49.112 493.197 49.532C492.429 49.952 491.577 50.162 490.641 50.162ZM490.641 48.722C491.229 48.722 491.781 48.584 492.297 48.308C492.813 48.032 493.227 47.618 493.539 47.066C493.863 46.514 494.025 45.842 494.025 45.05C494.025 44.258 493.869 43.586 493.557 43.034C493.245 42.482 492.837 42.074 492.333 41.81C491.829 41.534 491.283 41.396 490.695 41.396C490.095 41.396 489.543 41.534 489.039 41.81C488.547 42.074 488.151 42.482 487.851 43.034C487.551 43.586 487.401 44.258 487.401 45.05C487.401 45.854 487.545 46.532 487.833 47.084C488.133 47.636 488.529 48.05 489.021 48.326C489.513 48.59 490.053 48.722 490.641 48.722ZM502.659 39.956C503.859 39.956 504.831 40.322 505.575 41.054C506.319 41.774 506.691 42.818 506.691 44.186V50H505.071V44.42C505.071 43.436 504.825 42.686 504.333 42.17C503.841 41.642 503.169 41.378 502.317 41.378C501.453 41.378 500.763 41.648 500.247 42.188C499.743 42.728 499.491 43.514 499.491 44.546V50H497.853V40.136H499.491V41.54C499.815 41.036 500.253 40.646 500.805 40.37C501.369 40.094 501.987 39.956 502.659 39.956ZM230.774 74.032C230.774 73.024 230.978 72.142 231.386 71.386C231.794 70.618 232.352 70.024 233.06 69.604C233.78 69.184 234.578 68.974 235.454 68.974C236.318 68.974 237.068 69.16 237.704 69.532C238.34 69.904 238.814 70.372 239.126 70.936V69.136H240.782V79H239.126V77.164C238.802 77.74 238.316 78.22 237.668 78.604C237.032 78.976 236.288 79.162 235.436 79.162C234.56 79.162 233.768 78.946 233.06 78.514C232.352 78.082 231.794 77.476 231.386 76.696C230.978 75.916 230.774 75.028 230.774 74.032ZM239.126 74.05C239.126 73.306 238.976 72.658 238.676 72.106C238.376 71.554 237.968 71.134 237.452 70.846C236.948 70.546 236.39 70.396 235.778 70.396C235.166 70.396 234.608 70.54 234.104 70.828C233.6 71.116 233.198 71.536 232.898 72.088C232.598 72.64 232.448 73.288 232.448 74.032C232.448 74.788 232.598 75.448 232.898 76.012C233.198 76.564 233.6 76.99 234.104 77.29C234.608 77.578 235.166 77.722 235.778 77.722C236.39 77.722 236.948 77.578 237.452 77.29C237.968 76.99 238.376 76.564 238.676 76.012C238.976 75.448 239.126 74.794 239.126 74.05ZM245.188 70.972C245.524 70.384 246.016 69.904 246.664 69.532C247.312 69.16 248.05 68.974 248.878 68.974C249.766 68.974 250.564 69.184 251.272 69.604C251.98 70.024 252.538 70.618 252.946 71.386C253.354 72.142 253.558 73.024 253.558 74.032C253.558 75.028 253.354 75.916 252.946 76.696C252.538 77.476 251.974 78.082 251.254 78.514C250.546 78.946 249.754 79.162 248.878 79.162C248.026 79.162 247.276 78.976 246.628 78.604C245.992 78.232 245.512 77.758 245.188 77.182V79H243.55V65.68H245.188V70.972ZM251.884 74.032C251.884 73.288 251.734 72.64 251.434 72.088C251.134 71.536 250.726 71.116 250.21 70.828C249.706 70.54 249.148 70.396 248.536 70.396C247.936 70.396 247.378 70.546 246.862 70.846C246.358 71.134 245.95 71.56 245.638 72.124C245.338 72.676 245.188 73.318 245.188 74.05C245.188 74.794 245.338 75.448 245.638 76.012C245.95 76.564 246.358 76.99 246.862 77.29C247.378 77.578 247.936 77.722 248.536 77.722C249.148 77.722 249.706 77.578 250.21 77.29C250.726 76.99 251.134 76.564 251.434 76.012C251.734 75.448 251.884 74.788 251.884 74.032ZM260.016 79.162C259.092 79.162 258.252 78.952 257.496 78.532C256.752 78.112 256.164 77.518 255.732 76.75C255.312 75.97 255.102 75.07 255.102 74.05C255.102 73.042 255.318 72.154 255.75 71.386C256.194 70.606 256.794 70.012 257.55 69.604C258.306 69.184 259.152 68.974 260.088 68.974C261.024 68.974 261.87 69.184 262.626 69.604C263.382 70.012 263.976 70.6 264.408 71.368C264.852 72.136 265.074 73.03 265.074 74.05C265.074 75.07 264.846 75.97 264.39 76.75C263.946 77.518 263.34 78.112 262.572 78.532C261.804 78.952 260.952 79.162 260.016 79.162ZM260.016 77.722C260.604 77.722 261.156 77.584 261.672 77.308C262.188 77.032 262.602 76.618 262.914 76.066C263.238 75.514 263.4 74.842 263.4 74.05C263.4 73.258 263.244 72.586 262.932 72.034C262.62 71.482 262.212 71.074 261.708 70.81C261.204 70.534 260.658 70.396 260.07 70.396C259.47 70.396 258.918 70.534 258.414 70.81C257.922 71.074 257.526 71.482 257.226 72.034C256.926 72.586 256.776 73.258 256.776 74.05C256.776 74.854 256.92 75.532 257.208 76.084C257.508 76.636 257.904 77.05 258.396 77.326C258.888 77.59 259.428 77.722 260.016 77.722ZM275.976 69.136V79H274.338V77.542C274.026 78.046 273.588 78.442 273.024 78.73C272.472 79.006 271.86 79.144 271.188 79.144C270.42 79.144 269.73 78.988 269.118 78.676C268.506 78.352 268.02 77.872 267.66 77.236C267.312 76.6 267.138 75.826 267.138 74.914V69.136H268.758V74.698C268.758 75.67 269.004 76.42 269.496 76.948C269.988 77.464 270.66 77.722 271.512 77.722C272.388 77.722 273.078 77.452 273.582 76.912C274.086 76.372 274.338 75.586 274.338 74.554V69.136H275.976ZM280.739 70.486V76.3C280.739 76.78 280.841 77.122 281.045 77.326C281.249 77.518 281.603 77.614 282.107 77.614H283.313V79H281.837C280.925 79 280.241 78.79 279.785 78.37C279.329 77.95 279.101 77.26 279.101 76.3V70.486H277.823V69.136H279.101V66.652H280.739V69.136H283.313V70.486H280.739ZM292.095 70.486V76.3C292.095 76.78 292.197 77.122 292.401 77.326C292.605 77.518 292.959 77.614 293.463 77.614H294.669V79H293.193C292.281 79 291.597 78.79 291.141 78.37C290.685 77.95 290.457 77.26 290.457 76.3V70.486H289.179V69.136H290.457V66.652H292.095V69.136H294.669V70.486H292.095ZM301.55 68.956C302.294 68.956 302.966 69.118 303.566 69.442C304.166 69.754 304.634 70.228 304.97 70.864C305.318 71.5 305.492 72.274 305.492 73.186V79H303.872V73.42C303.872 72.436 303.626 71.686 303.134 71.17C302.642 70.642 301.97 70.378 301.118 70.378C300.254 70.378 299.564 70.648 299.048 71.188C298.544 71.728 298.292 72.514 298.292 73.546V79H296.654V65.68H298.292V70.54C298.616 70.036 299.06 69.646 299.624 69.37C300.2 69.094 300.842 68.956 301.55 68.956ZM317.167 73.69C317.167 74.002 317.149 74.332 317.113 74.68H309.229C309.289 75.652 309.619 76.414 310.219 76.966C310.831 77.506 311.569 77.776 312.433 77.776C313.141 77.776 313.729 77.614 314.197 77.29C314.677 76.954 315.013 76.51 315.205 75.958H316.969C316.705 76.906 316.177 77.68 315.385 78.28C314.593 78.868 313.609 79.162 312.433 79.162C311.497 79.162 310.657 78.952 309.913 78.532C309.181 78.112 308.605 77.518 308.185 76.75C307.765 75.97 307.555 75.07 307.555 74.05C307.555 73.03 307.759 72.136 308.167 71.368C308.575 70.6 309.145 70.012 309.877 69.604C310.621 69.184 311.473 68.974 312.433 68.974C313.369 68.974 314.197 69.178 314.917 69.586C315.637 69.994 316.189 70.558 316.573 71.278C316.969 71.986 317.167 72.79 317.167 73.69ZM315.475 73.348C315.475 72.724 315.337 72.19 315.061 71.746C314.785 71.29 314.407 70.948 313.927 70.72C313.459 70.48 312.937 70.36 312.361 70.36C311.533 70.36 310.825 70.624 310.237 71.152C309.661 71.68 309.331 72.412 309.247 73.348H315.475ZM323.516 74.032C323.516 73.024 323.72 72.142 324.128 71.386C324.536 70.618 325.094 70.024 325.802 69.604C326.522 69.184 327.326 68.974 328.214 68.974C328.982 68.974 329.696 69.154 330.356 69.514C331.016 69.862 331.52 70.324 331.868 70.9V65.68H333.524V79H331.868V77.146C331.544 77.734 331.064 78.22 330.428 78.604C329.792 78.976 329.048 79.162 328.196 79.162C327.32 79.162 326.522 78.946 325.802 78.514C325.094 78.082 324.536 77.476 324.128 76.696C323.72 75.916 323.516 75.028 323.516 74.032ZM331.868 74.05C331.868 73.306 331.718 72.658 331.418 72.106C331.118 71.554 330.71 71.134 330.194 70.846C329.69 70.546 329.132 70.396 328.52 70.396C327.908 70.396 327.35 70.54 326.846 70.828C326.342 71.116 325.94 71.536 325.64 72.088C325.34 72.64 325.19 73.288 325.19 74.032C325.19 74.788 325.34 75.448 325.64 76.012C325.94 76.564 326.342 76.99 326.846 77.29C327.35 77.578 327.908 77.722 328.52 77.722C329.132 77.722 329.69 77.578 330.194 77.29C330.71 76.99 331.118 76.564 331.418 76.012C331.718 75.448 331.868 74.794 331.868 74.05ZM345.292 73.69C345.292 74.002 345.274 74.332 345.238 74.68H337.354C337.414 75.652 337.744 76.414 338.344 76.966C338.956 77.506 339.694 77.776 340.558 77.776C341.266 77.776 341.854 77.614 342.322 77.29C342.802 76.954 343.138 76.51 343.33 75.958H345.094C344.83 76.906 344.302 77.68 343.51 78.28C342.718 78.868 341.734 79.162 340.558 79.162C339.622 79.162 338.782 78.952 338.038 78.532C337.306 78.112 336.73 77.518 336.31 76.75C335.89 75.97 335.68 75.07 335.68 74.05C335.68 73.03 335.884 72.136 336.292 71.368C336.7 70.6 337.27 70.012 338.002 69.604C338.746 69.184 339.598 68.974 340.558 68.974C341.494 68.974 342.322 69.178 343.042 69.586C343.762 69.994 344.314 70.558 344.698 71.278C345.094 71.986 345.292 72.79 345.292 73.69ZM343.6 73.348C343.6 72.724 343.462 72.19 343.186 71.746C342.91 71.29 342.532 70.948 342.052 70.72C341.584 70.48 341.062 70.36 340.486 70.36C339.658 70.36 338.95 70.624 338.362 71.152C337.786 71.68 337.456 72.412 337.372 73.348H343.6ZM351.126 77.488L354.186 69.136H355.932L352.062 79H350.154L346.284 69.136H348.048L351.126 77.488ZM358.39 67.534C358.078 67.534 357.814 67.426 357.598 67.21C357.382 66.994 357.274 66.73 357.274 66.418C357.274 66.106 357.382 65.842 357.598 65.626C357.814 65.41 358.078 65.302 358.39 65.302C358.69 65.302 358.942 65.41 359.146 65.626C359.362 65.842 359.47 66.106 359.47 66.418C359.47 66.73 359.362 66.994 359.146 67.21C358.942 67.426 358.69 67.534 358.39 67.534ZM359.182 69.136V79H357.544V69.136H359.182ZM361.362 74.05C361.362 73.03 361.566 72.142 361.974 71.386C362.382 70.618 362.946 70.024 363.666 69.604C364.398 69.184 365.232 68.974 366.168 68.974C367.38 68.974 368.376 69.268 369.156 69.856C369.948 70.444 370.47 71.26 370.722 72.304H368.958C368.79 71.704 368.46 71.23 367.968 70.882C367.488 70.534 366.888 70.36 366.168 70.36C365.232 70.36 364.476 70.684 363.9 71.332C363.324 71.968 363.036 72.874 363.036 74.05C363.036 75.238 363.324 76.156 363.9 76.804C364.476 77.452 365.232 77.776 366.168 77.776C366.888 77.776 367.488 77.608 367.968 77.272C368.448 76.936 368.778 76.456 368.958 75.832H370.722C370.458 76.84 369.93 77.65 369.138 78.262C368.346 78.862 367.356 79.162 366.168 79.162C365.232 79.162 364.398 78.952 363.666 78.532C362.946 78.112 362.382 77.518 361.974 76.75C361.566 75.982 361.362 75.082 361.362 74.05ZM381.907 73.69C381.907 74.002 381.889 74.332 381.853 74.68H373.969C374.029 75.652 374.359 76.414 374.959 76.966C375.571 77.506 376.309 77.776 377.173 77.776C377.881 77.776 378.469 77.614 378.937 77.29C379.417 76.954 379.753 76.51 379.945 75.958H381.709C381.445 76.906 380.917 77.68 380.125 78.28C379.333 78.868 378.349 79.162 377.173 79.162C376.237 79.162 375.397 78.952 374.653 78.532C373.921 78.112 373.345 77.518 372.925 76.75C372.505 75.97 372.295 75.07 372.295 74.05C372.295 73.03 372.499 72.136 372.907 71.368C373.315 70.6 373.885 70.012 374.617 69.604C375.361 69.184 376.213 68.974 377.173 68.974C378.109 68.974 378.937 69.178 379.657 69.586C380.377 69.994 380.929 70.558 381.313 71.278C381.709 71.986 381.907 72.79 381.907 73.69ZM380.215 73.348C380.215 72.724 380.077 72.19 379.801 71.746C379.525 71.29 379.147 70.948 378.667 70.72C378.199 70.48 377.677 70.36 377.101 70.36C376.273 70.36 375.565 70.624 374.977 71.152C374.401 71.68 374.071 72.412 373.987 73.348H380.215ZM385.762 76.732L383.746 81.574H382.648L383.962 76.732H385.762ZM391.825 74.032C391.825 73.024 392.029 72.142 392.437 71.386C392.845 70.618 393.403 70.024 394.111 69.604C394.831 69.184 395.629 68.974 396.505 68.974C397.369 68.974 398.119 69.16 398.755 69.532C399.391 69.904 399.865 70.372 400.177 70.936V69.136H401.833V79H400.177V77.164C399.853 77.74 399.367 78.22 398.719 78.604C398.083 78.976 397.339 79.162 396.487 79.162C395.611 79.162 394.819 78.946 394.111 78.514C393.403 78.082 392.845 77.476 392.437 76.696C392.029 75.916 391.825 75.028 391.825 74.032ZM400.177 74.05C400.177 73.306 400.027 72.658 399.727 72.106C399.427 71.554 399.019 71.134 398.503 70.846C397.999 70.546 397.441 70.396 396.829 70.396C396.217 70.396 395.659 70.54 395.155 70.828C394.651 71.116 394.249 71.536 393.949 72.088C393.649 72.64 393.499 73.288 393.499 74.032C393.499 74.788 393.649 75.448 393.949 76.012C394.249 76.564 394.651 76.99 395.155 77.29C395.659 77.578 396.217 77.722 396.829 77.722C397.441 77.722 397.999 77.578 398.503 77.29C399.019 76.99 399.427 76.564 399.727 76.012C400.027 75.448 400.177 74.794 400.177 74.05ZM408.093 79.162C407.337 79.162 406.659 79.036 406.059 78.784C405.459 78.52 404.985 78.16 404.637 77.704C404.289 77.236 404.097 76.702 404.061 76.102H405.753C405.801 76.594 406.029 76.996 406.437 77.308C406.857 77.62 407.403 77.776 408.075 77.776C408.699 77.776 409.191 77.638 409.551 77.362C409.911 77.086 410.091 76.738 410.091 76.318C410.091 75.886 409.899 75.568 409.515 75.364C409.131 75.148 408.537 74.938 407.733 74.734C407.001 74.542 406.401 74.35 405.933 74.158C405.477 73.954 405.081 73.66 404.745 73.276C404.421 72.88 404.259 72.364 404.259 71.728C404.259 71.224 404.409 70.762 404.709 70.342C405.009 69.922 405.435 69.592 405.987 69.352C406.539 69.1 407.169 68.974 407.877 68.974C408.969 68.974 409.851 69.25 410.523 69.802C411.195 70.354 411.555 71.11 411.603 72.07H409.965C409.929 71.554 409.719 71.14 409.335 70.828C408.963 70.516 408.459 70.36 407.823 70.36C407.235 70.36 406.767 70.486 406.419 70.738C406.071 70.99 405.897 71.32 405.897 71.728C405.897 72.052 405.999 72.322 406.203 72.538C406.419 72.742 406.683 72.91 406.995 73.042C407.319 73.162 407.763 73.3 408.327 73.456C409.035 73.648 409.611 73.84 410.055 74.032C410.499 74.212 410.877 74.488 411.189 74.86C411.513 75.232 411.681 75.718 411.693 76.318C411.693 76.858 411.543 77.344 411.243 77.776C410.943 78.208 410.517 78.55 409.965 78.802C409.425 79.042 408.801 79.162 408.093 79.162ZM431.944 69.136L428.866 79H427.174L424.798 71.17L422.422 79H420.73L417.634 69.136H419.308L421.576 77.416L424.024 69.136H425.698L428.092 77.434L430.324 69.136H431.944ZM442.57 73.69C442.57 74.002 442.552 74.332 442.516 74.68H434.632C434.692 75.652 435.022 76.414 435.622 76.966C436.234 77.506 436.972 77.776 437.836 77.776C438.544 77.776 439.132 77.614 439.6 77.29C440.08 76.954 440.416 76.51 440.608 75.958H442.372C442.108 76.906 441.58 77.68 440.788 78.28C439.996 78.868 439.012 79.162 437.836 79.162C436.9 79.162 436.06 78.952 435.316 78.532C434.584 78.112 434.008 77.518 433.588 76.75C433.168 75.97 432.958 75.07 432.958 74.05C432.958 73.03 433.162 72.136 433.57 71.368C433.978 70.6 434.548 70.012 435.28 69.604C436.024 69.184 436.876 68.974 437.836 68.974C438.772 68.974 439.6 69.178 440.32 69.586C441.04 69.994 441.592 70.558 441.976 71.278C442.372 71.986 442.57 72.79 442.57 73.69ZM440.878 73.348C440.878 72.724 440.74 72.19 440.464 71.746C440.188 71.29 439.81 70.948 439.33 70.72C438.862 70.48 438.34 70.36 437.764 70.36C436.936 70.36 436.228 70.624 435.64 71.152C435.064 71.68 434.734 72.412 434.65 73.348H440.878ZM446.37 65.68V79H444.732V65.68H446.37ZM450.799 65.68V79H449.161V65.68H450.799ZM457.778 74.032C457.778 73.024 457.982 72.142 458.39 71.386C458.798 70.618 459.356 70.024 460.064 69.604C460.784 69.184 461.582 68.974 462.458 68.974C463.322 68.974 464.072 69.16 464.708 69.532C465.344 69.904 465.818 70.372 466.13 70.936V69.136H467.786V79H466.13V77.164C465.806 77.74 465.32 78.22 464.672 78.604C464.036 78.976 463.292 79.162 462.44 79.162C461.564 79.162 460.772 78.946 460.064 78.514C459.356 78.082 458.798 77.476 458.39 76.696C457.982 75.916 457.778 75.028 457.778 74.032ZM466.13 74.05C466.13 73.306 465.98 72.658 465.68 72.106C465.38 71.554 464.972 71.134 464.456 70.846C463.952 70.546 463.394 70.396 462.782 70.396C462.17 70.396 461.612 70.54 461.108 70.828C460.604 71.116 460.202 71.536 459.902 72.088C459.602 72.64 459.452 73.288 459.452 74.032C459.452 74.788 459.602 75.448 459.902 76.012C460.202 76.564 460.604 76.99 461.108 77.29C461.612 77.578 462.17 77.722 462.782 77.722C463.394 77.722 463.952 77.578 464.456 77.29C464.972 76.99 465.38 76.564 465.68 76.012C465.98 75.448 466.13 74.794 466.13 74.05ZM474.046 79.162C473.29 79.162 472.612 79.036 472.012 78.784C471.412 78.52 470.938 78.16 470.59 77.704C470.242 77.236 470.05 76.702 470.014 76.102H471.706C471.754 76.594 471.982 76.996 472.39 77.308C472.81 77.62 473.356 77.776 474.028 77.776C474.652 77.776 475.144 77.638 475.504 77.362C475.864 77.086 476.044 76.738 476.044 76.318C476.044 75.886 475.852 75.568 475.468 75.364C475.084 75.148 474.49 74.938 473.686 74.734C472.954 74.542 472.354 74.35 471.886 74.158C471.43 73.954 471.034 73.66 470.698 73.276C470.374 72.88 470.212 72.364 470.212 71.728C470.212 71.224 470.362 70.762 470.662 70.342C470.962 69.922 471.388 69.592 471.94 69.352C472.492 69.1 473.122 68.974 473.83 68.974C474.922 68.974 475.804 69.25 476.476 69.802C477.148 70.354 477.508 71.11 477.556 72.07H475.918C475.882 71.554 475.672 71.14 475.288 70.828C474.916 70.516 474.412 70.36 473.776 70.36C473.188 70.36 472.72 70.486 472.372 70.738C472.024 70.99 471.85 71.32 471.85 71.728C471.85 72.052 471.952 72.322 472.156 72.538C472.372 72.742 472.636 72.91 472.948 73.042C473.272 73.162 473.716 73.3 474.28 73.456C474.988 73.648 475.564 73.84 476.008 74.032C476.452 74.212 476.83 74.488 477.142 74.86C477.466 75.232 477.634 75.718 477.646 76.318C477.646 76.858 477.496 77.344 477.196 77.776C476.896 78.208 476.47 78.55 475.918 78.802C475.378 79.042 474.754 79.162 474.046 79.162ZM484.145 74.032C484.145 73.024 484.349 72.142 484.757 71.386C485.165 70.618 485.723 70.024 486.431 69.604C487.151 69.184 487.955 68.974 488.843 68.974C489.611 68.974 490.325 69.154 490.985 69.514C491.645 69.862 492.149 70.324 492.497 70.9V65.68H494.153V79H492.497V77.146C492.173 77.734 491.693 78.22 491.057 78.604C490.421 78.976 489.677 79.162 488.825 79.162C487.949 79.162 487.151 78.946 486.431 78.514C485.723 78.082 485.165 77.476 484.757 76.696C484.349 75.916 484.145 75.028 484.145 74.032ZM492.497 74.05C492.497 73.306 492.347 72.658 492.047 72.106C491.747 71.554 491.339 71.134 490.823 70.846C490.319 70.546 489.761 70.396 489.149 70.396C488.537 70.396 487.979 70.54 487.475 70.828C486.971 71.116 486.569 71.536 486.269 72.088C485.969 72.64 485.819 73.288 485.819 74.032C485.819 74.788 485.969 75.448 486.269 76.012C486.569 76.564 486.971 76.99 487.475 77.29C487.979 77.578 488.537 77.722 489.149 77.722C489.761 77.722 490.319 77.578 490.823 77.29C491.339 76.99 491.747 76.564 492.047 76.012C492.347 75.448 492.497 74.794 492.497 74.05ZM497.767 67.534C497.455 67.534 497.191 67.426 496.975 67.21C496.759 66.994 496.651 66.73 496.651 66.418C496.651 66.106 496.759 65.842 496.975 65.626C497.191 65.41 497.455 65.302 497.767 65.302C498.067 65.302 498.319 65.41 498.523 65.626C498.739 65.842 498.847 66.106 498.847 66.418C498.847 66.73 498.739 66.994 498.523 67.21C498.319 67.426 498.067 67.534 497.767 67.534ZM498.559 69.136V79H496.921V69.136H498.559ZM504.843 79.162C504.087 79.162 503.409 79.036 502.809 78.784C502.209 78.52 501.735 78.16 501.387 77.704C501.039 77.236 500.847 76.702 500.811 76.102H502.503C502.551 76.594 502.779 76.996 503.187 77.308C503.607 77.62 504.153 77.776 504.825 77.776C505.449 77.776 505.941 77.638 506.301 77.362C506.661 77.086 506.841 76.738 506.841 76.318C506.841 75.886 506.649 75.568 506.265 75.364C505.881 75.148 505.287 74.938 504.483 74.734C503.751 74.542 503.151 74.35 502.683 74.158C502.227 73.954 501.831 73.66 501.495 73.276C501.171 72.88 501.009 72.364 501.009 71.728C501.009 71.224 501.159 70.762 501.459 70.342C501.759 69.922 502.185 69.592 502.737 69.352C503.289 69.1 503.919 68.974 504.627 68.974C505.719 68.974 506.601 69.25 507.273 69.802C507.945 70.354 508.305 71.11 508.353 72.07H506.715C506.679 71.554 506.469 71.14 506.085 70.828C505.713 70.516 505.209 70.36 504.573 70.36C503.985 70.36 503.517 70.486 503.169 70.738C502.821 70.99 502.647 71.32 502.647 71.728C502.647 72.052 502.749 72.322 502.953 72.538C503.169 72.742 503.433 72.91 503.745 73.042C504.069 73.162 504.513 73.3 505.077 73.456C505.785 73.648 506.361 73.84 506.805 74.032C507.249 74.212 507.627 74.488 507.939 74.86C508.263 75.232 508.431 75.718 508.443 76.318C508.443 76.858 508.293 77.344 507.993 77.776C507.693 78.208 507.267 78.55 506.715 78.802C506.175 79.042 505.551 79.162 504.843 79.162ZM510.143 74.032C510.143 73.024 510.347 72.142 510.755 71.386C511.163 70.618 511.721 70.024 512.429 69.604C513.149 69.184 513.947 68.974 514.823 68.974C515.687 68.974 516.437 69.16 517.073 69.532C517.709 69.904 518.183 70.372 518.495 70.936V69.136H520.151V79H518.495V77.164C518.171 77.74 517.685 78.22 517.037 78.604C516.401 78.976 515.657 79.162 514.805 79.162C513.929 79.162 513.137 78.946 512.429 78.514C511.721 78.082 511.163 77.476 510.755 76.696C510.347 75.916 510.143 75.028 510.143 74.032ZM518.495 74.05C518.495 73.306 518.345 72.658 518.045 72.106C517.745 71.554 517.337 71.134 516.821 70.846C516.317 70.546 515.759 70.396 515.147 70.396C514.535 70.396 513.977 70.54 513.473 70.828C512.969 71.116 512.567 71.536 512.267 72.088C511.967 72.64 511.817 73.288 511.817 74.032C511.817 74.788 511.967 75.448 512.267 76.012C512.567 76.564 512.969 76.99 513.473 77.29C513.977 77.578 514.535 77.722 515.147 77.722C515.759 77.722 516.317 77.578 516.821 77.29C517.337 76.99 517.745 76.564 518.045 76.012C518.345 75.448 518.495 74.794 518.495 74.05ZM524.557 70.972C524.893 70.384 525.385 69.904 526.033 69.532C526.681 69.16 527.419 68.974 528.247 68.974C529.135 68.974 529.933 69.184 530.641 69.604C531.349 70.024 531.907 70.618 532.315 71.386C532.723 72.142 532.927 73.024 532.927 74.032C532.927 75.028 532.723 75.916 532.315 76.696C531.907 77.476 531.343 78.082 530.623 78.514C529.915 78.946 529.123 79.162 528.247 79.162C527.395 79.162 526.645 78.976 525.997 78.604C525.361 78.232 524.881 77.758 524.557 77.182V79H522.919V65.68H524.557V70.972ZM531.253 74.032C531.253 73.288 531.103 72.64 530.803 72.088C530.503 71.536 530.095 71.116 529.579 70.828C529.075 70.54 528.517 70.396 527.905 70.396C527.305 70.396 526.747 70.546 526.231 70.846C525.727 71.134 525.319 71.56 525.007 72.124C524.707 72.676 524.557 73.318 524.557 74.05C524.557 74.794 524.707 75.448 525.007 76.012C525.319 76.564 525.727 76.99 526.231 77.29C526.747 77.578 527.305 77.722 527.905 77.722C528.517 77.722 529.075 77.578 529.579 77.29C530.095 76.99 530.503 76.564 530.803 76.012C531.103 75.448 531.253 74.788 531.253 74.032ZM536.721 65.68V79H535.083V65.68H536.721ZM548.513 73.69C548.513 74.002 548.495 74.332 548.459 74.68H540.575C540.635 75.652 540.965 76.414 541.565 76.966C542.177 77.506 542.915 77.776 543.779 77.776C544.487 77.776 545.075 77.614 545.543 77.29C546.023 76.954 546.359 76.51 546.551 75.958H548.315C548.051 76.906 547.523 77.68 546.731 78.28C545.939 78.868 544.955 79.162 543.779 79.162C542.843 79.162 542.003 78.952 541.259 78.532C540.527 78.112 539.951 77.518 539.531 76.75C539.111 75.97 538.901 75.07 538.901 74.05C538.901 73.03 539.105 72.136 539.513 71.368C539.921 70.6 540.491 70.012 541.223 69.604C541.967 69.184 542.819 68.974 543.779 68.974C544.715 68.974 545.543 69.178 546.263 69.586C546.983 69.994 547.535 70.558 547.919 71.278C548.315 71.986 548.513 72.79 548.513 73.69ZM546.821 73.348C546.821 72.724 546.683 72.19 546.407 71.746C546.131 71.29 545.753 70.948 545.273 70.72C544.805 70.48 544.283 70.36 543.707 70.36C542.879 70.36 542.171 70.624 541.583 71.152C541.007 71.68 540.677 72.412 540.593 73.348H546.821ZM232.232 96.534C231.92 96.534 231.656 96.426 231.44 96.21C231.224 95.994 231.116 95.73 231.116 95.418C231.116 95.106 231.224 94.842 231.44 94.626C231.656 94.41 231.92 94.302 232.232 94.302C232.532 94.302 232.784 94.41 232.988 94.626C233.204 94.842 233.312 95.106 233.312 95.418C233.312 95.73 233.204 95.994 232.988 96.21C232.784 96.426 232.532 96.534 232.232 96.534ZM233.024 98.136V108H231.386V98.136H233.024ZM239.83 99.486H237.76V108H236.122V99.486H234.844V98.136H236.122V97.434C236.122 96.33 236.404 95.526 236.968 95.022C237.544 94.506 238.462 94.248 239.722 94.248V95.616C239.002 95.616 238.492 95.76 238.192 96.048C237.904 96.324 237.76 96.786 237.76 97.434V98.136H239.83V99.486ZM251.344 97.956C252.544 97.956 253.516 98.322 254.26 99.054C255.004 99.774 255.376 100.818 255.376 102.186V108H253.756V102.42C253.756 101.436 253.51 100.686 253.018 100.17C252.526 99.642 251.854 99.378 251.002 99.378C250.138 99.378 249.448 99.648 248.932 100.188C248.428 100.728 248.176 101.514 248.176 102.546V108H246.538V98.136H248.176V99.54C248.5 99.036 248.938 98.646 249.49 98.37C250.054 98.094 250.672 97.956 251.344 97.956ZM267.052 102.69C267.052 103.002 267.034 103.332 266.998 103.68H259.114C259.174 104.652 259.504 105.414 260.104 105.966C260.716 106.506 261.454 106.776 262.318 106.776C263.026 106.776 263.614 106.614 264.082 106.29C264.562 105.954 264.898 105.51 265.09 104.958H266.854C266.59 105.906 266.062 106.68 265.27 107.28C264.478 107.868 263.494 108.162 262.318 108.162C261.382 108.162 260.542 107.952 259.798 107.532C259.066 107.112 258.49 106.518 258.07 105.75C257.65 104.97 257.44 104.07 257.44 103.05C257.44 102.03 257.644 101.136 258.052 100.368C258.46 99.6 259.03 99.012 259.762 98.604C260.506 98.184 261.358 97.974 262.318 97.974C263.254 97.974 264.082 98.178 264.802 98.586C265.522 98.994 266.074 99.558 266.458 100.278C266.854 100.986 267.052 101.79 267.052 102.69ZM265.36 102.348C265.36 101.724 265.222 101.19 264.946 100.746C264.67 100.29 264.292 99.948 263.812 99.72C263.344 99.48 262.822 99.36 262.246 99.36C261.418 99.36 260.71 99.624 260.122 100.152C259.546 100.68 259.216 101.412 259.132 102.348H265.36ZM268.602 103.05C268.602 102.03 268.806 101.142 269.214 100.386C269.622 99.618 270.186 99.024 270.906 98.604C271.638 98.184 272.472 97.974 273.408 97.974C274.62 97.974 275.616 98.268 276.396 98.856C277.188 99.444 277.71 100.26 277.962 101.304H276.198C276.03 100.704 275.7 100.23 275.208 99.882C274.728 99.534 274.128 99.36 273.408 99.36C272.472 99.36 271.716 99.684 271.14 100.332C270.564 100.968 270.276 101.874 270.276 103.05C270.276 104.238 270.564 105.156 271.14 105.804C271.716 106.452 272.472 106.776 273.408 106.776C274.128 106.776 274.728 106.608 275.208 106.272C275.688 105.936 276.018 105.456 276.198 104.832H277.962C277.698 105.84 277.17 106.65 276.378 107.262C275.586 107.862 274.596 108.162 273.408 108.162C272.472 108.162 271.638 107.952 270.906 107.532C270.186 107.112 269.622 106.518 269.214 105.75C268.806 104.982 268.602 104.082 268.602 103.05ZM289.148 102.69C289.148 103.002 289.13 103.332 289.094 103.68H281.21C281.27 104.652 281.6 105.414 282.2 105.966C282.812 106.506 283.55 106.776 284.414 106.776C285.122 106.776 285.71 106.614 286.178 106.29C286.658 105.954 286.994 105.51 287.186 104.958H288.95C288.686 105.906 288.158 106.68 287.366 107.28C286.574 107.868 285.59 108.162 284.414 108.162C283.478 108.162 282.638 107.952 281.894 107.532C281.162 107.112 280.586 106.518 280.166 105.75C279.746 104.97 279.536 104.07 279.536 103.05C279.536 102.03 279.74 101.136 280.148 100.368C280.556 99.6 281.126 99.012 281.858 98.604C282.602 98.184 283.454 97.974 284.414 97.974C285.35 97.974 286.178 98.178 286.898 98.586C287.618 98.994 288.17 99.558 288.554 100.278C288.95 100.986 289.148 101.79 289.148 102.69ZM287.456 102.348C287.456 101.724 287.318 101.19 287.042 100.746C286.766 100.29 286.388 99.948 285.908 99.72C285.44 99.48 284.918 99.36 284.342 99.36C283.514 99.36 282.806 99.624 282.218 100.152C281.642 100.68 281.312 101.412 281.228 102.348H287.456ZM294.802 108.162C294.046 108.162 293.368 108.036 292.768 107.784C292.168 107.52 291.694 107.16 291.346 106.704C290.998 106.236 290.806 105.702 290.77 105.102H292.462C292.51 105.594 292.738 105.996 293.146 106.308C293.566 106.62 294.112 106.776 294.784 106.776C295.408 106.776 295.9 106.638 296.26 106.362C296.62 106.086 296.8 105.738 296.8 105.318C296.8 104.886 296.608 104.568 296.224 104.364C295.84 104.148 295.246 103.938 294.442 103.734C293.71 103.542 293.11 103.35 292.642 103.158C292.186 102.954 291.79 102.66 291.454 102.276C291.13 101.88 290.968 101.364 290.968 100.728C290.968 100.224 291.118 99.762 291.418 99.342C291.718 98.922 292.144 98.592 292.696 98.352C293.248 98.1 293.878 97.974 294.586 97.974C295.678 97.974 296.56 98.25 297.232 98.802C297.904 99.354 298.264 100.11 298.312 101.07H296.674C296.638 100.554 296.428 100.14 296.044 99.828C295.672 99.516 295.168 99.36 294.532 99.36C293.944 99.36 293.476 99.486 293.128 99.738C292.78 99.99 292.606 100.32 292.606 100.728C292.606 101.052 292.708 101.322 292.912 101.538C293.128 101.742 293.392 101.91 293.704 102.042C294.028 102.162 294.472 102.3 295.036 102.456C295.744 102.648 296.32 102.84 296.764 103.032C297.208 103.212 297.586 103.488 297.898 103.86C298.222 104.232 298.39 104.718 298.402 105.318C298.402 105.858 298.252 106.344 297.952 106.776C297.652 107.208 297.226 107.55 296.674 107.802C296.134 108.042 295.51 108.162 294.802 108.162ZM304.206 108.162C303.45 108.162 302.772 108.036 302.172 107.784C301.572 107.52 301.098 107.16 300.75 106.704C300.402 106.236 300.21 105.702 300.174 105.102H301.866C301.914 105.594 302.142 105.996 302.55 106.308C302.97 106.62 303.516 106.776 304.188 106.776C304.812 106.776 305.304 106.638 305.664 106.362C306.024 106.086 306.204 105.738 306.204 105.318C306.204 104.886 306.012 104.568 305.628 104.364C305.244 104.148 304.65 103.938 303.846 103.734C303.114 103.542 302.514 103.35 302.046 103.158C301.59 102.954 301.194 102.66 300.858 102.276C300.534 101.88 300.372 101.364 300.372 100.728C300.372 100.224 300.522 99.762 300.822 99.342C301.122 98.922 301.548 98.592 302.1 98.352C302.652 98.1 303.282 97.974 303.99 97.974C305.082 97.974 305.964 98.25 306.636 98.802C307.308 99.354 307.668 100.11 307.716 101.07H306.078C306.042 100.554 305.832 100.14 305.448 99.828C305.076 99.516 304.572 99.36 303.936 99.36C303.348 99.36 302.88 99.486 302.532 99.738C302.184 99.99 302.01 100.32 302.01 100.728C302.01 101.052 302.112 101.322 302.316 101.538C302.532 101.742 302.796 101.91 303.108 102.042C303.432 102.162 303.876 102.3 304.44 102.456C305.148 102.648 305.724 102.84 306.168 103.032C306.612 103.212 306.99 103.488 307.302 103.86C307.626 104.232 307.794 104.718 307.806 105.318C307.806 105.858 307.656 106.344 307.356 106.776C307.056 107.208 306.63 107.55 306.078 107.802C305.538 108.042 304.914 108.162 304.206 108.162ZM309.506 103.032C309.506 102.024 309.71 101.142 310.118 100.386C310.526 99.618 311.084 99.024 311.792 98.604C312.512 98.184 313.31 97.974 314.186 97.974C315.05 97.974 315.8 98.16 316.436 98.532C317.072 98.904 317.546 99.372 317.858 99.936V98.136H319.514V108H317.858V106.164C317.534 106.74 317.048 107.22 316.4 107.604C315.764 107.976 315.02 108.162 314.168 108.162C313.292 108.162 312.5 107.946 311.792 107.514C311.084 107.082 310.526 106.476 310.118 105.696C309.71 104.916 309.506 104.028 309.506 103.032ZM317.858 103.05C317.858 102.306 317.708 101.658 317.408 101.106C317.108 100.554 316.7 100.134 316.184 99.846C315.68 99.546 315.122 99.396 314.51 99.396C313.898 99.396 313.34 99.54 312.836 99.828C312.332 100.116 311.93 100.536 311.63 101.088C311.33 101.64 311.18 102.288 311.18 103.032C311.18 103.788 311.33 104.448 311.63 105.012C311.93 105.564 312.332 105.99 312.836 106.29C313.34 106.578 313.898 106.722 314.51 106.722C315.122 106.722 315.68 106.578 316.184 106.29C316.7 105.99 317.108 105.564 317.408 105.012C317.708 104.448 317.858 103.794 317.858 103.05ZM323.92 99.738C324.208 99.174 324.616 98.736 325.144 98.424C325.684 98.112 326.338 97.956 327.106 97.956V99.648H326.674C324.838 99.648 323.92 100.644 323.92 102.636V108H322.282V98.136H323.92V99.738ZM337.493 98.136L331.553 112.644H329.861L331.805 107.892L327.827 98.136H329.645L332.741 106.128L335.801 98.136H337.493ZM339.662 108.108C339.35 108.108 339.086 108 338.87 107.784C338.654 107.568 338.546 107.304 338.546 106.992C338.546 106.68 338.654 106.416 338.87 106.2C339.086 105.984 339.35 105.876 339.662 105.876C339.962 105.876 340.214 105.984 340.418 106.2C340.634 106.416 340.742 106.68 340.742 106.992C340.742 107.304 340.634 107.568 340.418 107.784C340.214 108 339.962 108.108 339.662 108.108Z" fill="#575E74"/>
<path d="M165 0H15C6.71573 0 0 6.71573 0 15V135C0 143.284 6.71573 150 15 150H165C173.284 150 180 143.284 180 135V15C180 6.71573 173.284 0 165 0Z" fill="#30304D"/>
<path d="M29.3214 18.2139C23.284 18.2139 18.993 23.3652 19 29.0814C19.0035 31.8118 19.9676 34.3024 21.5546 36.2059C23.0588 38.0095 24.5038 40.9478 24.6299 41.8925L24.6334 46.5283C24.6334 46.7225 24.6885 46.9118 24.7906 47.0734L26.2279 49.345C26.4021 49.6201 26.6953 49.7853 27.0091 49.7853H31.6332C31.9475 49.7853 32.2408 49.6201 32.4143 49.345L33.8517 47.0734C33.9538 46.9118 34.0083 46.7219 34.0089 46.5283L34.013 41.8925C34.1455 40.9231 35.5958 37.996 37.0883 36.2059C38.6782 34.2987 39.6429 31.8025 39.6429 29.0666C39.6429 23.0729 35.0217 18.2139 29.3214 18.2139ZM32.1328 46.228L31.1306 47.8121H27.5117L26.5094 46.228L26.5088 45.8389H32.1328V46.228ZM32.1352 43.8657H26.5071L26.503 41.8925H32.1375L32.1352 43.8657ZM35.6773 34.9048C34.8569 35.889 33.5468 37.8708 32.7111 39.9186H25.9324C25.0961 37.8702 23.7866 35.889 22.9661 34.9048C21.6097 33.2781 20.8843 31.2155 20.8796 29.0666C20.869 24.3191 24.4205 20.1871 29.3214 20.1871C33.9778 20.1871 37.7662 24.1705 37.7662 29.0666C37.7662 31.2155 37.0244 33.2892 35.6773 34.9048ZM29.3214 22.1603C25.7001 22.1603 22.7533 25.2589 22.7533 29.0666C22.7533 29.6117 23.1731 30.0532 23.6916 30.0532C24.21 30.0532 24.6299 29.6117 24.6299 29.0666C24.6299 26.3466 26.734 24.1335 29.3214 24.1335C29.8399 24.1335 30.2597 23.692 30.2597 23.1469C30.2597 22.6018 29.8399 22.1603 29.3214 22.1603Z" fill="white"/>
<path d="M22.5244 95.2246H28.334V97H20.3008V84.2031H22.5244V95.2246ZM32.1045 97H29.9688V87.4902H32.1045V97ZM29.8369 85.0205C29.8369 84.6924 29.9395 84.4199 30.1445 84.2031C30.3555 83.9863 30.6543 83.8779 31.041 83.8779C31.4277 83.8779 31.7266 83.9863 31.9375 84.2031C32.1484 84.4199 32.2539 84.6924 32.2539 85.0205C32.2539 85.3428 32.1484 85.6123 31.9375 85.8291C31.7266 86.04 31.4277 86.1455 31.041 86.1455C30.6543 86.1455 30.3555 86.04 30.1445 85.8291C29.9395 85.6123 29.8369 85.3428 29.8369 85.0205ZM34.0645 92.1748C34.0645 90.6982 34.4102 89.5205 35.1016 88.6416C35.7988 87.7568 36.7217 87.3145 37.8701 87.3145C38.9541 87.3145 39.8066 87.6924 40.4277 88.4482L40.5244 87.4902H42.4492V96.71C42.4492 97.958 42.0596 98.9424 41.2803 99.6631C40.5068 100.384 39.4609 100.744 38.1426 100.744C37.4453 100.744 36.7627 100.598 36.0947 100.305C35.4326 100.018 34.9287 99.6396 34.583 99.1709L35.5938 97.8877C36.25 98.667 37.0586 99.0566 38.0195 99.0566C38.7285 99.0566 39.2881 98.8633 39.6982 98.4766C40.1084 98.0957 40.3135 97.5332 40.3135 96.7891V96.1475C39.6982 96.833 38.8779 97.1758 37.8525 97.1758C36.7393 97.1758 35.8281 96.7334 35.1191 95.8486C34.416 94.9639 34.0645 93.7393 34.0645 92.1748ZM36.1914 92.3594C36.1914 93.3145 36.3848 94.0674 36.7715 94.6182C37.1641 95.1631 37.7061 95.4355 38.3975 95.4355C39.2588 95.4355 39.8975 95.0664 40.3135 94.3281V90.1445C39.9092 89.4238 39.2764 89.0635 38.415 89.0635C37.7119 89.0635 37.1641 89.3418 36.7715 89.8984C36.3848 90.4551 36.1914 91.2754 36.1914 92.3594ZM46.7559 88.5273C47.4531 87.7188 48.335 87.3145 49.4014 87.3145C51.4287 87.3145 52.457 88.4717 52.4863 90.7861V97H50.3506V90.8652C50.3506 90.209 50.207 89.7461 49.9199 89.4766C49.6387 89.2012 49.2227 89.0635 48.6719 89.0635C47.8164 89.0635 47.1777 89.4443 46.7559 90.2061V97H44.6201V83.5H46.7559V88.5273ZM57.3291 85.1787V87.4902H59.0078V89.0723H57.3291V94.3809C57.3291 94.7441 57.3994 95.0078 57.54 95.1719C57.6865 95.3301 57.9443 95.4092 58.3135 95.4092C58.5596 95.4092 58.8086 95.3799 59.0605 95.3213V96.9736C58.5742 97.1084 58.1055 97.1758 57.6543 97.1758C56.0137 97.1758 55.1934 96.2705 55.1934 94.46V89.0723H53.6289V87.4902H55.1934V85.1787H57.3291Z" fill="white"/>
<path d="M28.3164 123.251V125H21.8916V123.251H28.3164ZM22.5068 112.203V125H20.3008V112.203H22.5068ZM32.0781 115.49V125H29.9512V115.49H32.0781ZM29.8105 112.994C29.8105 112.672 29.916 112.405 30.127 112.194C30.3438 111.978 30.6426 111.869 31.0234 111.869C31.3984 111.869 31.6943 111.978 31.9111 112.194C32.1279 112.405 32.2363 112.672 32.2363 112.994C32.2363 113.311 32.1279 113.574 31.9111 113.785C31.6943 113.996 31.3984 114.102 31.0234 114.102C30.6426 114.102 30.3438 113.996 30.127 113.785C29.916 113.574 29.8105 113.311 29.8105 112.994ZM37.4922 123.321L39.8213 115.49H42.0186L38.7139 125H37.3428L37.4922 123.321ZM35.708 115.49L38.0811 123.356L38.1953 125H36.8242L33.502 115.49H35.708ZM45.5957 115.49V125H43.4688V115.49H45.5957ZM43.3281 112.994C43.3281 112.672 43.4336 112.405 43.6445 112.194C43.8613 111.978 44.1602 111.869 44.541 111.869C44.916 111.869 45.2119 111.978 45.4287 112.194C45.6455 112.405 45.7539 112.672 45.7539 112.994C45.7539 113.311 45.6455 113.574 45.4287 113.785C45.2119 113.996 44.916 114.102 44.541 114.102C44.1602 114.102 43.8613 113.996 43.6445 113.785C43.4336 113.574 43.3281 113.311 43.3281 112.994ZM50.0166 117.521V125H47.8984V115.49H49.8936L50.0166 117.521ZM49.6387 119.894L48.9531 119.885C48.959 119.211 49.0527 118.593 49.2344 118.03C49.4219 117.468 49.6797 116.984 50.0078 116.58C50.3418 116.176 50.7402 115.865 51.2031 115.648C51.666 115.426 52.1816 115.314 52.75 115.314C53.207 115.314 53.6201 115.379 53.9893 115.508C54.3643 115.631 54.6836 115.833 54.9473 116.114C55.2168 116.396 55.4219 116.762 55.5625 117.213C55.7031 117.658 55.7734 118.206 55.7734 118.856V125H53.6465V118.848C53.6465 118.391 53.5791 118.03 53.4443 117.767C53.3154 117.497 53.125 117.307 52.873 117.195C52.627 117.078 52.3193 117.02 51.9502 117.02C51.5869 117.02 51.2617 117.096 50.9746 117.248C50.6875 117.4 50.4443 117.608 50.2451 117.872C50.0518 118.136 49.9023 118.44 49.7969 118.786C49.6914 119.132 49.6387 119.501 49.6387 119.894ZM64.0264 115.49H65.9512V124.736C65.9512 125.592 65.7695 126.318 65.4062 126.916C65.043 127.514 64.5361 127.968 63.8857 128.278C63.2354 128.595 62.4824 128.753 61.627 128.753C61.2637 128.753 60.8594 128.7 60.4141 128.595C59.9746 128.489 59.5469 128.319 59.1309 128.085C58.7207 127.856 58.3779 127.555 58.1025 127.18L59.0957 125.932C59.4355 126.336 59.8105 126.632 60.2207 126.819C60.6309 127.007 61.0615 127.101 61.5127 127.101C61.999 127.101 62.4121 127.01 62.752 126.828C63.0977 126.652 63.3643 126.392 63.5518 126.046C63.7393 125.7 63.833 125.278 63.833 124.78V117.644L64.0264 115.49ZM57.5664 120.351V120.166C57.5664 119.445 57.6543 118.789 57.8301 118.197C58.0059 117.6 58.2578 117.087 58.5859 116.659C58.9141 116.226 59.3125 115.895 59.7812 115.666C60.25 115.432 60.7803 115.314 61.3721 115.314C61.9873 115.314 62.5117 115.426 62.9453 115.648C63.3848 115.871 63.751 116.19 64.0439 116.606C64.3369 117.017 64.5654 117.509 64.7295 118.083C64.8994 118.651 65.0254 119.284 65.1074 119.981V120.57C65.0312 121.25 64.9023 121.871 64.7207 122.434C64.5391 122.996 64.2988 123.482 64 123.893C63.7012 124.303 63.332 124.619 62.8926 124.842C62.459 125.064 61.9463 125.176 61.3545 125.176C60.7744 125.176 60.25 125.056 59.7812 124.815C59.3184 124.575 58.9199 124.238 58.5859 123.805C58.2578 123.371 58.0059 122.861 57.8301 122.275C57.6543 121.684 57.5664 121.042 57.5664 120.351ZM59.6846 120.166V120.351C59.6846 120.784 59.7256 121.188 59.8076 121.563C59.8955 121.938 60.0273 122.27 60.2031 122.557C60.3848 122.838 60.6133 123.061 60.8887 123.225C61.1699 123.383 61.501 123.462 61.8818 123.462C62.3799 123.462 62.7871 123.356 63.1035 123.146C63.4258 122.935 63.6719 122.65 63.8418 122.293C64.0176 121.93 64.1406 121.525 64.2109 121.08V119.489C64.1758 119.144 64.1025 118.821 63.9912 118.522C63.8857 118.224 63.7422 117.963 63.5605 117.74C63.3789 117.512 63.1504 117.336 62.875 117.213C62.5996 117.084 62.2744 117.02 61.8994 117.02C61.5186 117.02 61.1875 117.102 60.9062 117.266C60.625 117.43 60.3936 117.655 60.2119 117.942C60.0361 118.229 59.9043 118.563 59.8164 118.944C59.7285 119.325 59.6846 119.732 59.6846 120.166ZM72.8418 112.203H77.3682C78.3408 112.203 79.1699 112.35 79.8555 112.643C80.541 112.936 81.0654 113.369 81.4287 113.943C81.7979 114.512 81.9824 115.215 81.9824 116.053C81.9824 116.691 81.8652 117.254 81.6309 117.74C81.3965 118.227 81.0654 118.637 80.6377 118.971C80.21 119.299 79.7002 119.554 79.1084 119.735L78.4404 120.061H74.3711L74.3535 118.312H77.4033C77.9307 118.312 78.3701 118.218 78.7217 118.03C79.0732 117.843 79.3369 117.588 79.5127 117.266C79.6943 116.938 79.7852 116.568 79.7852 116.158C79.7852 115.713 79.6973 115.326 79.5215 114.998C79.3516 114.664 79.0879 114.409 78.7305 114.233C78.373 114.052 77.9189 113.961 77.3682 113.961H75.0479V125H72.8418V112.203ZM80.1455 125L77.1396 119.252L79.4512 119.243L82.501 124.886V125H80.1455ZM83.5645 120.351V120.148C83.5645 119.463 83.6641 118.827 83.8633 118.241C84.0625 117.649 84.3496 117.137 84.7246 116.703C85.1055 116.264 85.5684 115.924 86.1133 115.684C86.6641 115.438 87.2852 115.314 87.9766 115.314C88.6738 115.314 89.2949 115.438 89.8398 115.684C90.3906 115.924 90.8564 116.264 91.2373 116.703C91.6182 117.137 91.9082 117.649 92.1074 118.241C92.3066 118.827 92.4062 119.463 92.4062 120.148V120.351C92.4062 121.036 92.3066 121.672 92.1074 122.258C91.9082 122.844 91.6182 123.356 91.2373 123.796C90.8564 124.229 90.3936 124.569 89.8486 124.815C89.3037 125.056 88.6855 125.176 87.9941 125.176C87.2969 125.176 86.6729 125.056 86.1221 124.815C85.5771 124.569 85.1143 124.229 84.7334 123.796C84.3525 123.356 84.0625 122.844 83.8633 122.258C83.6641 121.672 83.5645 121.036 83.5645 120.351ZM85.6826 120.148V120.351C85.6826 120.778 85.7266 121.183 85.8145 121.563C85.9023 121.944 86.04 122.278 86.2275 122.565C86.415 122.853 86.6553 123.078 86.9482 123.242C87.2412 123.406 87.5898 123.488 87.9941 123.488C88.3867 123.488 88.7266 123.406 89.0137 123.242C89.3066 123.078 89.5469 122.853 89.7344 122.565C89.9219 122.278 90.0596 121.944 90.1475 121.563C90.2412 121.183 90.2881 120.778 90.2881 120.351V120.148C90.2881 119.727 90.2412 119.328 90.1475 118.953C90.0596 118.572 89.9189 118.235 89.7256 117.942C89.5381 117.649 89.2979 117.421 89.0049 117.257C88.7178 117.087 88.375 117.002 87.9766 117.002C87.5781 117.002 87.2324 117.087 86.9395 117.257C86.6523 117.421 86.415 117.649 86.2275 117.942C86.04 118.235 85.9023 118.572 85.8145 118.953C85.7266 119.328 85.6826 119.727 85.6826 120.148ZM93.7773 120.351V120.148C93.7773 119.463 93.877 118.827 94.0762 118.241C94.2754 117.649 94.5625 117.137 94.9375 116.703C95.3184 116.264 95.7812 115.924 96.3262 115.684C96.877 115.438 97.498 115.314 98.1895 115.314C98.8867 115.314 99.5078 115.438 100.053 115.684C100.604 115.924 101.069 116.264 101.45 116.703C101.831 117.137 102.121 117.649 102.32 118.241C102.52 118.827 102.619 119.463 102.619 120.148V120.351C102.619 121.036 102.52 121.672 102.32 122.258C102.121 122.844 101.831 123.356 101.45 123.796C101.069 124.229 100.606 124.569 100.062 124.815C99.5166 125.056 98.8984 125.176 98.207 125.176C97.5098 125.176 96.8857 125.056 96.335 124.815C95.79 124.569 95.3271 124.229 94.9463 123.796C94.5654 123.356 94.2754 122.844 94.0762 122.258C93.877 121.672 93.7773 121.036 93.7773 120.351ZM95.8955 120.148V120.351C95.8955 120.778 95.9395 121.183 96.0273 121.563C96.1152 121.944 96.2529 122.278 96.4404 122.565C96.6279 122.853 96.8682 123.078 97.1611 123.242C97.4541 123.406 97.8027 123.488 98.207 123.488C98.5996 123.488 98.9395 123.406 99.2266 123.242C99.5195 123.078 99.7598 122.853 99.9473 122.565C100.135 122.278 100.272 121.944 100.36 121.563C100.454 121.183 100.501 120.778 100.501 120.351V120.148C100.501 119.727 100.454 119.328 100.36 118.953C100.272 118.572 100.132 118.235 99.9385 117.942C99.751 117.649 99.5107 117.421 99.2178 117.257C98.9307 117.087 98.5879 117.002 98.1895 117.002C97.791 117.002 97.4453 117.087 97.1523 117.257C96.8652 117.421 96.6279 117.649 96.4404 117.942C96.2529 118.235 96.1152 118.572 96.0273 118.953C95.9395 119.328 95.8955 119.727 95.8955 120.148ZM106.513 117.424V125H104.395V115.49H106.39L106.513 117.424ZM106.17 119.894L105.449 119.885C105.449 119.229 105.531 118.622 105.695 118.065C105.859 117.509 106.1 117.025 106.416 116.615C106.732 116.199 107.125 115.88 107.594 115.657C108.068 115.429 108.616 115.314 109.237 115.314C109.671 115.314 110.066 115.379 110.424 115.508C110.787 115.631 111.101 115.827 111.364 116.097C111.634 116.366 111.839 116.712 111.979 117.134C112.126 117.556 112.199 118.065 112.199 118.663V125H110.081V118.848C110.081 118.385 110.011 118.021 109.87 117.758C109.735 117.494 109.539 117.307 109.281 117.195C109.029 117.078 108.728 117.02 108.376 117.02C107.978 117.02 107.638 117.096 107.356 117.248C107.081 117.4 106.855 117.608 106.68 117.872C106.504 118.136 106.375 118.44 106.293 118.786C106.211 119.132 106.17 119.501 106.17 119.894ZM112.067 119.331L111.074 119.551C111.074 118.977 111.153 118.435 111.312 117.925C111.476 117.409 111.713 116.958 112.023 116.571C112.34 116.179 112.729 115.871 113.192 115.648C113.655 115.426 114.186 115.314 114.783 115.314C115.27 115.314 115.703 115.382 116.084 115.517C116.471 115.646 116.799 115.851 117.068 116.132C117.338 116.413 117.543 116.779 117.684 117.23C117.824 117.676 117.895 118.215 117.895 118.848V125H115.768V118.839C115.768 118.358 115.697 117.986 115.557 117.723C115.422 117.459 115.229 117.277 114.977 117.178C114.725 117.072 114.423 117.02 114.071 117.02C113.743 117.02 113.453 117.081 113.201 117.204C112.955 117.321 112.747 117.488 112.577 117.705C112.407 117.916 112.278 118.159 112.19 118.435C112.108 118.71 112.067 119.009 112.067 119.331Z" fill="#DDDDDD"/>
<path d="M144.5 17H115.5C106.387 17 99 24.3873 99 33.5C99 42.6127 106.387 50 115.5 50H144.5C153.613 50 161 42.6127 161 33.5C161 24.3873 153.613 17 144.5 17Z" fill="#FF7D3B"/>
<path d="M144.5 48C152.508 48 159 41.5081 159 33.5C159 25.4919 152.508 19 144.5 19C136.492 19 130 25.4919 130 33.5C130 41.5081 136.492 48 144.5 48Z" fill="white"/>
</svg>
