<svg width="393" height="60" viewBox="0 0 393 60" fill="none" xmlns="http://www.w3.org/2000/svg">
<rect opacity="0.35" x="332.5" y="23.5" width="24" height="13" rx="3" stroke="white"/>
<rect x="334" y="25" width="21" height="10" rx="3" fill="white"/>
<path opacity="0.35" d="M358 28C358 28 360 28.4 360 30C360 31.6 358 32 358 32V28Z" fill="white"/>
<path fill-rule="evenodd" clip-rule="evenodd" d="M316.607 32C317.987 32 319.237 32.5596 320.142 33.4645L316.607 37L313.071 33.4645C313.976 32.5596 315.226 32 316.607 32ZM316.607 27C319.368 27 321.868 28.1193 323.678 29.9289L321.556 32.0503C320.29 30.7835 318.54 30 316.607 30C314.674 30 312.924 30.7835 311.657 32.0503L309.536 29.9289C311.345 28.1193 313.845 27 316.607 27ZM316.236 22.0045L316.607 22L317.06 22.0067L317.459 22.0238L317.802 22.0469L318.238 22.0877L318.602 22.1315L318.996 22.1892L319.404 22.2603V22.2603L319.808 22.3423L320.159 22.4231L320.569 22.529V22.529L320.989 22.6503L321.277 22.7414L321.592 22.8484L321.931 22.9725L322.307 23.1212V23.1212L322.678 23.2793L323.021 23.4366L323.355 23.6V23.6L323.684 23.7712L324.003 23.9475L324.31 24.1264L324.639 24.3294V24.3294L324.962 24.5407L325.263 24.748L325.535 24.9456V24.9456L325.896 25.2218L326.163 25.4373L326.43 25.6637L326.73 25.9307V25.9307L327.045 26.2274V26.2274L327.214 26.3944L325.092 28.5147C322.92 26.3431 319.92 25 316.607 25C313.293 25 310.293 26.3429 308.122 28.5142L306 26.3934L306.024 26.3694C306.113 26.2804 306.204 26.1926 306.296 26.1058C306.476 25.9346 306.662 25.7677 306.851 25.6055L307.06 25.4298L307.317 25.2221L307.546 25.0446V25.0446L307.799 24.8567V24.8567L308.056 24.6739L308.205 24.572L308.618 24.3017L308.929 24.1114L309.21 23.9475L309.624 23.721L309.956 23.5511V23.5511L310.294 23.3891L310.609 23.2469L310.979 23.0913V23.0913L311.354 22.9455L311.686 22.8258L312.114 22.6844V22.6844L312.409 22.5953L312.795 22.4886L313.176 22.394L313.508 22.3203L313.891 22.2452V22.2452L314.277 22.1798L314.65 22.1265L315.036 22.0812L315.432 22.0453L315.868 22.0179L316.236 22.0045Z" fill="white"/>
<rect x="280" y="31" width="4" height="5" rx="2" fill="white"/>
<rect x="286" y="29" width="4" height="7" rx="2" fill="white"/>
<rect x="292" y="26" width="4" height="10" rx="2" fill="white"/>
<rect x="298" y="23" width="4" height="13" rx="2" fill="white"/>
<path d="M57.5176 23.001C54.7666 23.001 52.8066 24.8818 52.8066 27.457V27.4746C52.8066 29.8828 54.5117 31.6582 56.9463 31.6582C58.6865 31.6582 59.7939 30.7705 60.2598 29.7686H60.4355C60.4355 29.8652 60.4268 29.9619 60.4268 30.0586C60.3301 32.4844 59.4775 34.4531 57.4648 34.4531C56.3486 34.4531 55.5664 33.873 55.2324 32.9854L55.2061 32.8975H52.9736L52.9912 32.9941C53.3955 34.9365 55.1357 36.3164 57.4648 36.3164C60.6553 36.3164 62.5801 33.7852 62.5801 29.5137V29.4961C62.5801 24.9258 60.2246 23.001 57.5176 23.001ZM57.5088 29.918C56.0674 29.918 55.0215 28.8633 55.0215 27.3955V27.3779C55.0215 25.9629 56.1377 24.8467 57.5352 24.8467C58.9414 24.8467 60.04 25.9805 60.04 27.4307V27.4482C60.04 28.8809 58.9414 29.918 57.5088 29.918ZM66.5703 27.7822C67.3789 27.7822 67.9678 27.167 67.9678 26.3936C67.9678 25.6113 67.3789 25.0049 66.5703 25.0049C65.7705 25.0049 65.1729 25.6113 65.1729 26.3936C65.1729 27.167 65.7705 27.7822 66.5703 27.7822ZM66.5703 34.3037C67.3789 34.3037 67.9678 33.6973 67.9678 32.915C67.9678 32.1328 67.3789 31.5264 66.5703 31.5264C65.7705 31.5264 65.1729 32.1328 65.1729 32.915C65.1729 33.6973 65.7705 34.3037 66.5703 34.3037ZM76.7129 36H78.8838V33.5654H80.5889V31.6934H78.8838V23.3174H75.6758C73.9531 25.9365 72.1514 28.8545 70.5078 31.7109V33.5654H76.7129V36ZM72.6172 31.7461V31.6143C73.8477 29.4609 75.3154 27.1143 76.6162 25.1279H76.748V31.7461H72.6172ZM85.8447 36H88.1123V23.3174H85.8535L82.54 25.6465V27.7822L85.6953 25.5498H85.8447V36Z" fill="white"/>
<rect x="133" y="12" width="126" height="36" rx="18" fill="#161616"/>
</svg>
