<svg width="199" height="91" viewBox="0 0 199 91" fill="none" xmlns="http://www.w3.org/2000/svg">
<path d="M109.974 36.1624C108.44 34.9259 104.744 33.3987 101.596 40.594C101.171 41.5644 100.969 42.6301 101.05 43.6861C101.348 47.5475 103.175 46.9881 111.605 34.6823C108.478 38.4643 103.692 46.7191 111.197 45.5351L117.316 34.189L114.461 40.602C118.268 36.6556 125.637 30.7358 121.395 38.6288M127.105 34.189L121.395 46.0285C125.61 39.451 133.795 28.5653 132.816 37.6422C131.32 40.2731 128.247 45.6338 127.921 46.0285C127.513 46.5218 138.526 27.7762 138.934 36.1624C135.535 40.931 130.695 49.383 138.526 45.0419C140.158 46.5218 144.808 46.7191 150.355 35.669C148.044 34.5179 142.687 34.4851 139.75 43.562C139.342 45.5352 140.239 48.0018 147.092 42.082C146.412 44.3841 146.113 48.2976 150.355 45.5351L156.474 34.189L151.987 43.562C155.522 38.6289 162.266 30.2427 160.961 36.1624C159.329 39.6155 156.637 46.4231 158.921 46.0285C161.205 45.6338 162.592 43.8908 163 43.0687L148.316 85" stroke="white" stroke-width="2" stroke-linecap="round" stroke-linejoin="round"/>
<path d="M65.8442 34.039C62.6037 33.539 55.4217 35.8298 56.0371 44.8933C56.0834 45.5759 56.559 46.2027 57.2228 46.0371C59.13 45.5612 62.4247 42.4949 65.8442 34.039ZM65.8442 34.039C63.1503 38.5423 59.3788 48.0685 65.8442 45.9901C73.381 43.5672 76.3492 39.3368 78.0262 34.9844C78.2257 34.4667 77.9422 33.8882 77.3911 33.8236C74.5334 33.4885 69.6386 35.2083 67.0565 44.4312L74.7342 41.3137C72.9831 45.2974 69.1577 53.9922 67.8646 56.902C66.2483 60.5392 61.3992 54.8234 77.1587 44.4312C79.3768 45.4379 84.7292 45.0793 88.8822 35.9884C89.1107 35.4883 88.8736 34.8966 88.3372 34.776C85.6728 34.1775 81.2994 35.1488 79.5832 42.8725C78.9098 44.7778 79.3408 47.2373 86.4528 41.8333C85.6446 44.6045 85.4021 48.7961 90.8978 43.3921M90.8978 43.3921C91.8406 42.526 94.0497 39.6508 95.3427 35.0783C96.6358 30.5058 93.7264 34.5587 92.11 37.1568M90.8978 43.3921C91.5712 46.5098 94.5346 49.1079 101 33" stroke="white" stroke-width="2" stroke-linecap="round"/>
<path d="M1 21.4545C10.6577 12.7721 32.1925 0.107778 53.5651 5.03303C64.0504 7.44935 67.6046 19.1183 58.9844 25.5583C50.818 31.6593 36.8427 38.4747 14.0286 44.0909C22.1714 55.4545 104.5 106.083 131 84C140 76.5 141.9 54.5 97.5 54.5H43H191M34.6571 1L11.8571 79" stroke="white" stroke-width="2" stroke-linecap="round"/>
<path d="M196 54.45L197.5 54.45" stroke="white" stroke-width="2" stroke-linecap="round"/>
</svg>
